<mxfile host="Electron" modified="2024-03-31T09:23:19.240Z" agent="Mozilla/5.0 (Windows NT 10.0; Win64; x64) AppleWebKit/537.36 (KHTML, like Gecko) draw.io/24.1.0 Chrome/120.0.6099.109 Electron/28.1.0 Safari/537.36" etag="EKXhfT_vCNTwMc16QwA_" version="24.1.0" type="device" pages="3">
  <diagram name="aCoral-module" id="fx_ShVIOOxxxuzXgRNjY">
    <mxGraphModel dx="592" dy="885" grid="0" gridSize="10" guides="1" tooltips="1" connect="1" arrows="1" fold="1" page="0" pageScale="1" pageWidth="1169" pageHeight="827" math="0" shadow="0">
      <root>
        <mxCell id="0" />
        <mxCell id="1" parent="0" />
        <UserObject label="" tags="Background" id="_dXutc9Zo4Ne7qODg98x-39">
          <mxCell style="vsdxID=1;rotation=45;fillColor=#c6b29e;gradientColor=none;shape=stencil(jZFRDsIgEERPs58aYGM9QK33aCwVIkJDqdbbC1mbKiGmfzvDWyaZBaxH1Q4SBBuDdzf51F1QgCcQQlslvQ5xAmwA6955efVush3poU1kmu7ukX6YaY+lDcFepA4kz0ReJk8o/2U/cserfXUkbxbkcbZAogBhDuGW2BVfjEJwFssLsX9DjbYbW4nDWmavjaFbfL/n5UeLDofNGw==);strokeColor=#b2ebf2;spacingTop=-3;spacingBottom=-3;spacingLeft=-3;spacingRight=-3;points=[];labelBackgroundColor=none;rounded=0;html=1;whiteSpace=wrap;" parent="1" vertex="1">
            <mxGeometry x="208" y="105" width="635" height="635" as="geometry" />
          </mxCell>
        </UserObject>
        <UserObject label="" tags="Background" id="_dXutc9Zo4Ne7qODg98x-40">
          <mxCell style="vsdxID=2;rotation=45;fillColor=#f58f00;gradientColor=none;shape=stencil(jZFRDsIgEERPs58aYGM9QK33aCwVIkJDqdbbC1mbKiGmfzvDWyaZBaxH1Q4SBBuDdzf51F1QgCcQQlslvQ5xAmwA6955efVush3poU1kmu7ukX6YaY+lDcFepA4kz0ReJk8o/2U/cserfXUkbxbkcbZAogBhDuGW2BVfjEJwFssLsX9DjbYbW4nDWmavjaFbfL/n5UeLDofNGw==);strokeColor=#ffffff;strokeWidth=7;spacingTop=-3;spacingBottom=-3;spacingLeft=-3;spacingRight=-3;points=[];labelBackgroundColor=none;rounded=0;html=1;whiteSpace=wrap;" parent="1" vertex="1">
            <mxGeometry x="349" y="248" width="350" height="350" as="geometry" />
          </mxCell>
        </UserObject>
        <UserObject label="&lt;div style=&quot;font-size: 1px&quot;&gt;&lt;p style=&quot;text-align:center;margin-left:0;margin-right:0;margin-top:0px;margin-bottom:0px;text-indent:0;vertical-align:middle;direction:ltr;&quot;&gt;&lt;font style=&quot;font-size:22px;font-family:0;color:#000000;direction:ltr;letter-spacing:0px;line-height:120%;opacity:1&quot;&gt;&lt;b&gt;中断管理系统&lt;/b&gt;&lt;/font&gt;&lt;/p&gt;&lt;/div&gt;" tags="Background" id="_dXutc9Zo4Ne7qODg98x-41">
          <mxCell style="verticalAlign=middle;align=center;overflow=width;vsdxID=3;fillColor=none;gradientColor=none;shape=stencil(nZBLDoAgDAVP0z3SIyjeg0SURgWD+Lu9EGL8xBW7N828Ji1gOWs5KeBs9s72aqPGa8AKOCejlSMfEqAALFvrVOfsYprEk4xmTKNd44Y99VhscHY8qU7iQOYhFixbvfhXzlZfYgj3hQG+54dReh2KEw==);strokeColor=none;strokeWidth=0;spacingTop=-3;spacingBottom=-3;spacingLeft=-3;spacingRight=-3;points=[];labelBackgroundColor=none;rounded=0;html=1;whiteSpace=wrap;" parent="1" vertex="1">
            <mxGeometry x="365" y="395" width="133" height="40" as="geometry" />
          </mxCell>
        </UserObject>
        <UserObject label="&lt;div style=&quot;font-size: 1px&quot;&gt;&lt;p style=&quot;text-align:center;margin-left:0;margin-right:0;margin-top:0px;margin-bottom:0px;text-indent:0;vertical-align:middle;direction:ltr;&quot;&gt;&lt;font style=&quot;font-size:22px;font-family:0;color:#000000;direction:ltr;letter-spacing:0px;line-height:120%;opacity:1&quot;&gt;&lt;b&gt;内存管理系统&lt;/b&gt;&lt;/font&gt;&lt;/p&gt;&lt;/div&gt;" tags="Background" id="_dXutc9Zo4Ne7qODg98x-42">
          <mxCell style="verticalAlign=middle;align=center;overflow=width;vsdxID=4;fillColor=none;gradientColor=none;shape=stencil(nZBLDoAgDAVP0z3SIyjeg0SURgWD+Lu9EGL8xBW7N828Ji1gOWs5KeBs9s72aqPGa8AKOCejlSMfEqAALFvrVOfsYprEk4xmTKNd44Y99VhscHY8qU7iQOYhFixbvfhXzlZfYgj3hQG+54dReh2KEw==);strokeColor=none;strokeWidth=0;spacingTop=-3;spacingBottom=-3;spacingLeft=-3;spacingRight=-3;points=[];labelBackgroundColor=none;rounded=0;html=1;whiteSpace=wrap;" parent="1" vertex="1">
            <mxGeometry x="455" y="285" width="136" height="35" as="geometry" />
          </mxCell>
        </UserObject>
        <UserObject label="&lt;div style=&quot;font-size: 1px&quot;&gt;&lt;p style=&quot;text-align:center;margin-left:0;margin-right:0;margin-top:0px;margin-bottom:0px;text-indent:0;vertical-align:middle;direction:ltr;&quot;&gt;&lt;font style=&quot;font-size:22px;font-family:0;color:#000000;direction:ltr;letter-spacing:0px;line-height:120%;opacity:1&quot;&gt;&lt;b&gt;线程管理系统&lt;/b&gt;&lt;/font&gt;&lt;/p&gt;&lt;/div&gt;" tags="Background" id="_dXutc9Zo4Ne7qODg98x-43">
          <mxCell style="verticalAlign=middle;align=center;overflow=width;vsdxID=5;fillColor=none;gradientColor=none;shape=stencil(nZBLDoAgDAVP0z3SIyjeg0SURgWD+Lu9EGL8xBW7N828Ji1gOWs5KeBs9s72aqPGa8AKOCejlSMfEqAALFvrVOfsYprEk4xmTKNd44Y99VhscHY8qU7iQOYhFixbvfhXzlZfYgj3hQG+54dReh2KEw==);strokeColor=none;strokeWidth=0;spacingTop=-3;spacingBottom=-3;spacingLeft=-3;spacingRight=-3;points=[];labelBackgroundColor=none;rounded=0;html=1;whiteSpace=wrap;" parent="1" vertex="1">
            <mxGeometry x="555" y="395" width="136" height="40" as="geometry" />
          </mxCell>
        </UserObject>
        <UserObject label="&lt;div style=&quot;font-size: 1px&quot;&gt;&lt;p style=&quot;text-align:center;margin-left:0;margin-right:0;margin-top:0px;margin-bottom:0px;text-indent:0;vertical-align:middle;direction:ltr;&quot;&gt;&lt;font style=&quot;font-size:22px;font-family:0;color:#000000;direction:ltr;letter-spacing:0px;line-height:120%;opacity:1&quot;&gt;&lt;b&gt;线程交互系统&lt;/b&gt;&lt;/font&gt;&lt;/p&gt;&lt;/div&gt;" tags="Background" id="_dXutc9Zo4Ne7qODg98x-44">
          <mxCell style="verticalAlign=middle;align=center;overflow=width;vsdxID=6;fillColor=none;gradientColor=none;shape=stencil(nZBLDoAgDAVP0z3SIyjeg0SURgWD+Lu9EGL8xBW7N828Ji1gOWs5KeBs9s72aqPGa8AKOCejlSMfEqAALFvrVOfsYprEk4xmTKNd44Y99VhscHY8qU7iQOYhFixbvfhXzlZfYgj3hQG+54dReh2KEw==);strokeColor=none;strokeWidth=0;spacingTop=-3;spacingBottom=-3;spacingLeft=-3;spacingRight=-3;points=[];labelBackgroundColor=none;rounded=0;html=1;whiteSpace=wrap;" parent="1" vertex="1">
            <mxGeometry x="454" y="508" width="138" height="41" as="geometry" />
          </mxCell>
        </UserObject>
        <UserObject label="&lt;div style=&quot;font-size: 1px&quot;&gt;&lt;p style=&quot;text-align:center;margin-left:0;margin-right:0;margin-top:0px;margin-bottom:0px;text-indent:0;vertical-align:middle;direction:ltr;&quot;&gt;&lt;font style=&quot;font-size:22px;font-family:0;color:#000000;direction:ltr;letter-spacing:0px;line-height:120%;opacity:1&quot;&gt;&lt;b&gt;驱动管理&lt;/b&gt;&lt;/font&gt;&lt;/p&gt;&lt;/div&gt;" tags="Background" id="_dXutc9Zo4Ne7qODg98x-45">
          <mxCell style="verticalAlign=middle;align=center;overflow=width;vsdxID=7;fillColor=none;gradientColor=none;shape=stencil(nZBLDoAgDAVP0z3SIyjeg0SURgWD+Lu9EGL8xBW7N828Ji1gOWs5KeBs9s72aqPGa8AKOCejlSMfEqAALFvrVOfsYprEk4xmTKNd44Y99VhscHY8qU7iQOYhFixbvfhXzlZfYgj3hQG+54dReh2KEw==);strokeColor=none;strokeWidth=0;spacingTop=-3;spacingBottom=-3;spacingLeft=-3;spacingRight=-3;points=[];labelBackgroundColor=none;rounded=0;html=1;whiteSpace=wrap;" parent="1" vertex="1">
            <mxGeometry x="263" y="341" width="34" height="147" as="geometry" />
          </mxCell>
        </UserObject>
        <UserObject label="&lt;div style=&quot;font-size: 1px&quot;&gt;&lt;p style=&quot;text-align:center;margin-left:0;margin-right:0;margin-top:0px;margin-bottom:0px;text-indent:0;vertical-align:middle;direction:ltr;&quot;&gt;&lt;font style=&quot;font-size:22px;font-family:0;color:#000000;direction:ltr;letter-spacing:0px;line-height:120%;opacity:1&quot;&gt;&lt;b&gt;文件系统&lt;/b&gt;&lt;/font&gt;&lt;/p&gt;&lt;/div&gt;" tags="Background" id="_dXutc9Zo4Ne7qODg98x-46">
          <mxCell style="verticalAlign=middle;align=center;overflow=width;vsdxID=8;fillColor=none;gradientColor=none;shape=stencil(nZBLDoAgDAVP0z3SIyjeg0SURgWD+Lu9EGL8xBW7N828Ji1gOWs5KeBs9s72aqPGa8AKOCejlSMfEqAALFvrVOfsYprEk4xmTKNd44Y99VhscHY8qU7iQOYhFixbvfhXzlZfYgj3hQG+54dReh2KEw==);strokeColor=none;strokeWidth=0;spacingTop=-3;spacingBottom=-3;spacingLeft=-3;spacingRight=-3;points=[];labelBackgroundColor=none;rounded=0;html=1;whiteSpace=wrap;" parent="1" vertex="1">
            <mxGeometry x="761" y="336" width="34" height="147" as="geometry" />
          </mxCell>
        </UserObject>
        <UserObject label="&lt;div style=&quot;font-size: 1px&quot;&gt;&lt;p style=&quot;text-align:center;margin-left:0;margin-right:0;margin-top:0px;margin-bottom:0px;text-indent:0;vertical-align:middle;direction:ltr;&quot;&gt;&lt;font style=&quot;font-size:22px;font-family:0;color:#000000;direction:ltr;letter-spacing:0px;line-height:120%;opacity:1&quot;&gt;&lt;b&gt;GUI&lt;/b&gt;&lt;/font&gt;&lt;/p&gt;&lt;/div&gt;" tags="Background" id="_dXutc9Zo4Ne7qODg98x-47">
          <mxCell style="verticalAlign=middle;align=center;overflow=width;vsdxID=9;fillColor=none;gradientColor=none;shape=stencil(nZBLDoAgDAVP0z3SIyjeg0SURgWD+Lu9EGL8xBW7N828Ji1gOWs5KeBs9s72aqPGa8AKOCejlSMfEqAALFvrVOfsYprEk4xmTKNd44Y99VhscHY8qU7iQOYhFixbvfhXzlZfYgj3hQG+54dReh2KEw==);strokeColor=none;strokeWidth=0;spacingTop=-3;spacingBottom=-3;spacingLeft=-3;spacingRight=-3;points=[];labelBackgroundColor=none;rounded=0;html=1;whiteSpace=wrap;" parent="1" vertex="1">
            <mxGeometry x="461" y="145" width="120" height="40" as="geometry" />
          </mxCell>
        </UserObject>
        <UserObject label="&lt;div style=&quot;font-size: 1px&quot;&gt;&lt;p style=&quot;text-align:center;margin-left:0;margin-right:0;margin-top:0px;margin-bottom:0px;text-indent:0;vertical-align:middle;direction:ltr;&quot;&gt;&lt;font style=&quot;font-size:22px;font-family:0;color:#000000;direction:ltr;letter-spacing:0px;line-height:120%;opacity:1&quot;&gt;&lt;b&gt;Net&lt;/b&gt;&lt;/font&gt;&lt;/p&gt;&lt;/div&gt;" tags="Background" id="_dXutc9Zo4Ne7qODg98x-48">
          <mxCell style="verticalAlign=middle;align=center;overflow=width;vsdxID=10;fillColor=none;gradientColor=none;shape=stencil(nZBLDoAgDAVP0z3SIyjeg0SURgWD+Lu9EGL8xBW7N828Ji1gOWs5KeBs9s72aqPGa8AKOCejlSMfEqAALFvrVOfsYprEk4xmTKNd44Y99VhscHY8qU7iQOYhFixbvfhXzlZfYgj3hQG+54dReh2KEw==);strokeColor=none;strokeWidth=0;spacingTop=-3;spacingBottom=-3;spacingLeft=-3;spacingRight=-3;points=[];labelBackgroundColor=none;rounded=0;html=1;whiteSpace=wrap;" parent="1" vertex="1">
            <mxGeometry x="461" y="645" width="120" height="40" as="geometry" />
          </mxCell>
        </UserObject>
        <UserObject label="" tags="Background" id="_dXutc9Zo4Ne7qODg98x-49">
          <mxCell style="vsdxID=11;fillColor=#c6b29e;gradientColor=none;shape=stencil(nZBRDoQgDERP03+WHsHFe5iISyOCQdT19kIaIxq//Jtp3zTpAFaTaUYNUkwx+F6v1EYD+AUpyRkdKCYFqACrzgf9C352LfuxyWRWg1/yhT/nRE5IsZWuZtCSK8CPeI0e/hF+jV7AJM4PO7KWCyr390bSiNtEtQM=);strokeColor=#c6b29e;spacingTop=-3;spacingBottom=-3;spacingLeft=-3;spacingRight=-3;points=[];labelBackgroundColor=none;rounded=0;html=1;whiteSpace=wrap;" parent="1" vertex="1">
            <mxGeometry x="568" y="765" width="57" height="34" as="geometry" />
          </mxCell>
        </UserObject>
        <UserObject label="&lt;div style=&quot;font-size: 1px&quot;&gt;&lt;p style=&quot;text-align:center;margin-left:0;margin-right:0;margin-top:0px;margin-bottom:0px;text-indent:0;vertical-align:middle;direction:ltr;&quot;&gt;&lt;font style=&quot;font-size: 18px; direction: ltr; letter-spacing: 0px; line-height: 120%; opacity: 1;&quot;&gt;&lt;b&gt;外围模块&lt;/b&gt;&lt;/font&gt;&lt;/p&gt;&lt;/div&gt;" tags="Background" id="_dXutc9Zo4Ne7qODg98x-50">
          <mxCell style="verticalAlign=middle;align=center;overflow=width;vsdxID=12;fillColor=none;gradientColor=none;shape=stencil(nZBLDoAgDAVP0z3SIyjeg0SURgWD+Lu9EGL8xBW7N828Ji1gOWs5KeBs9s72aqPGa8AKOCejlSMfEqAALFvrVOfsYprEk4xmTKNd44Y99VhscHY8qU7iQOYhFixbvfhXzlZfYgj3hQG+54dReh2KEw==);strokeColor=none;strokeWidth=0;spacingTop=-3;spacingBottom=-3;spacingLeft=-3;spacingRight=-3;points=[];labelBackgroundColor=#FFFFFF;rounded=0;html=1;whiteSpace=wrap;fontColor=#0D0D0D;" parent="1" vertex="1">
            <mxGeometry x="625" y="765" width="74" height="34" as="geometry" />
          </mxCell>
        </UserObject>
        <UserObject label="" tags="Background" id="_dXutc9Zo4Ne7qODg98x-51">
          <mxCell style="vsdxID=13;fillColor=#f58f00;gradientColor=none;shape=stencil(nZBRDoQgDERP03+WHsHFe5iISyOCQdT19kIaIxq//Jtp3zTpAFaTaUYNUkwx+F6v1EYD+AUpyRkdKCYFqACrzgf9C352LfuxyWRWg1/yhT/nRE5IsZWuZtCSK8CPeI0e/hF+jV7AJM4PO7KWCyr390bSiNtEtQM=);strokeColor=#f58f00;spacingTop=-3;spacingBottom=-3;spacingLeft=-3;spacingRight=-3;points=[];labelBackgroundColor=none;rounded=0;html=1;whiteSpace=wrap;" parent="1" vertex="1">
            <mxGeometry x="367" y="765" width="57" height="34" as="geometry" />
          </mxCell>
        </UserObject>
        <UserObject label="&lt;div style=&quot;font-size: 1px&quot;&gt;&lt;p style=&quot;text-align:center;margin-left:0;margin-right:0;margin-top:0px;margin-bottom:0px;text-indent:0;vertical-align:middle;direction:ltr;&quot;&gt;&lt;font style=&quot;font-size: 18px; direction: ltr; letter-spacing: 0px; line-height: 120%; opacity: 1;&quot;&gt;&lt;b&gt;内核模块&lt;/b&gt;&lt;/font&gt;&lt;/p&gt;&lt;/div&gt;" tags="Background" id="_dXutc9Zo4Ne7qODg98x-52">
          <mxCell style="verticalAlign=middle;align=center;overflow=width;vsdxID=14;fillColor=none;gradientColor=none;shape=stencil(nZBLDoAgDAVP0z3SIyjeg0SURgWD+Lu9EGL8xBW7N828Ji1gOWs5KeBs9s72aqPGa8AKOCejlSMfEqAALFvrVOfsYprEk4xmTKNd44Y99VhscHY8qU7iQOYhFixbvfhXzlZfYgj3hQG+54dReh2KEw==);strokeColor=none;strokeWidth=0;spacingTop=-3;spacingBottom=-3;spacingLeft=-3;spacingRight=-3;points=[];labelBackgroundColor=#FFFFFF;rounded=0;html=1;whiteSpace=wrap;fontColor=#0D0D0D;" parent="1" vertex="1">
            <mxGeometry x="425" y="765" width="77" height="34" as="geometry" />
          </mxCell>
        </UserObject>
        <UserObject label="" tags="Background" id="_dXutc9Zo4Ne7qODg98x-53">
          <mxCell style="vsdxID=24;edgeStyle=none;startArrow=none;endArrow=none;startSize=5;endSize=5;strokeWidth=7;strokeColor=#ffffff;spacingTop=0;spacingBottom=0;spacingLeft=0;spacingRight=0;verticalAlign=middle;html=1;labelBackgroundColor=#ffffff;rounded=0;" parent="1" source="_dXutc9Zo4Ne7qODg98x-40" target="_dXutc9Zo4Ne7qODg98x-40" edge="1">
            <mxGeometry relative="1" as="geometry">
              <mxPoint x="-124" y="225" as="offset" />
              <Array as="points">
                <mxPoint x="400" y="299" />
                <mxPoint x="647.49" y="546.49" />
              </Array>
            </mxGeometry>
          </mxCell>
        </UserObject>
        <UserObject label="" tags="Background" id="_dXutc9Zo4Ne7qODg98x-54">
          <mxCell style="vsdxID=25;edgeStyle=none;startArrow=none;endArrow=none;startSize=5;endSize=5;strokeWidth=7;strokeColor=#ffffff;spacingTop=0;spacingBottom=0;spacingLeft=0;spacingRight=0;verticalAlign=middle;html=1;labelBackgroundColor=#ffffff;rounded=0;" parent="1" source="_dXutc9Zo4Ne7qODg98x-40" target="_dXutc9Zo4Ne7qODg98x-39" edge="1">
            <mxGeometry relative="1" as="geometry">
              <mxPoint x="49" y="151" as="offset" />
              <Array as="points">
                <mxPoint x="400" y="546" />
                <mxPoint x="300.74" y="646.76" />
              </Array>
            </mxGeometry>
          </mxCell>
        </UserObject>
        <UserObject label="" tags="Background" id="_dXutc9Zo4Ne7qODg98x-55">
          <mxCell style="vsdxID=26;edgeStyle=none;startArrow=none;endArrow=none;startSize=5;endSize=5;strokeWidth=7;strokeColor=#ffffff;spacingTop=0;spacingBottom=0;spacingLeft=0;spacingRight=0;verticalAlign=middle;html=1;labelBackgroundColor=#ffffff;rounded=0;" parent="1" source="_dXutc9Zo4Ne7qODg98x-39" target="_dXutc9Zo4Ne7qODg98x-40" edge="1">
            <mxGeometry relative="1" as="geometry">
              <mxPoint x="-50" y="151" as="offset" />
              <Array as="points">
                <mxPoint x="300" y="198" />
                <mxPoint x="399.26" y="298.76" />
              </Array>
            </mxGeometry>
          </mxCell>
        </UserObject>
        <UserObject label="" tags="Background" id="_dXutc9Zo4Ne7qODg98x-56">
          <mxCell style="vsdxID=29;edgeStyle=none;startArrow=none;endArrow=none;startSize=5;endSize=5;strokeWidth=7;strokeColor=#ffffff;spacingTop=0;spacingBottom=0;spacingLeft=0;spacingRight=0;verticalAlign=middle;html=1;labelBackgroundColor=#ffffff;rounded=0;" parent="1" source="_dXutc9Zo4Ne7qODg98x-39" target="_dXutc9Zo4Ne7qODg98x-40" edge="1">
            <mxGeometry relative="1" as="geometry">
              <mxPoint x="51" y="51" as="offset" />
              <Array as="points">
                <mxPoint x="750" y="647" />
                <mxPoint x="647.74" y="546.24" />
              </Array>
            </mxGeometry>
          </mxCell>
        </UserObject>
        <UserObject label="" tags="Background" id="_dXutc9Zo4Ne7qODg98x-57">
          <mxCell style="vsdxID=30;edgeStyle=none;startArrow=none;endArrow=none;startSize=5;endSize=5;strokeWidth=7;strokeColor=#ffffff;spacingTop=0;spacingBottom=0;spacingLeft=0;spacingRight=0;verticalAlign=middle;html=1;labelBackgroundColor=#ffffff;rounded=0;" parent="1" source="_dXutc9Zo4Ne7qODg98x-39" target="_dXutc9Zo4Ne7qODg98x-40" edge="1">
            <mxGeometry relative="1" as="geometry">
              <mxPoint x="51" y="151" as="offset" />
              <Array as="points">
                <mxPoint x="750" y="198" />
                <mxPoint x="647.74" y="298.76" />
              </Array>
            </mxGeometry>
          </mxCell>
        </UserObject>
        <UserObject label="" tags="Background" id="_dXutc9Zo4Ne7qODg98x-58">
          <mxCell style="vsdxID=31;edgeStyle=none;startArrow=none;endArrow=none;startSize=5;endSize=5;strokeWidth=7;strokeColor=#ffffff;spacingTop=0;spacingBottom=0;spacingLeft=0;spacingRight=0;verticalAlign=middle;html=1;labelBackgroundColor=#ffffff;rounded=0;" parent="1" source="_dXutc9Zo4Ne7qODg98x-40" target="_dXutc9Zo4Ne7qODg98x-40" edge="1">
            <mxGeometry relative="1" as="geometry">
              <mxPoint x="123" y="225" as="offset" />
              <Array as="points">
                <mxPoint x="647" y="299" />
                <mxPoint x="399.51" y="546.49" />
              </Array>
            </mxGeometry>
          </mxCell>
        </UserObject>
      </root>
    </mxGraphModel>
  </diagram>
  <diagram id="iD7PM3tEfEXeCH7slC8L" name="aCoral-architecture">
    <mxGraphModel dx="994" dy="2574" grid="0" gridSize="10" guides="1" tooltips="1" connect="1" arrows="1" fold="1" page="0" pageScale="1" pageWidth="1169" pageHeight="827" math="0" shadow="0">
      <root>
        <mxCell id="0" />
        <mxCell id="1" parent="0" />
        <mxCell id="946yijJ7GptTJKzko3uv-2" value="kernel" style="rounded=1;whiteSpace=wrap;html=1;strokeWidth=2;fontSize=20;fillColor=#a20025;fontColor=#ffffff;strokeColor=#6F0000;" vertex="1" parent="1">
          <mxGeometry x="41" y="-280" width="290" height="57" as="geometry" />
        </mxCell>
        <mxCell id="946yijJ7GptTJKzko3uv-4" style="edgeStyle=none;curved=1;rounded=0;orthogonalLoop=1;jettySize=auto;html=1;exitX=0.5;exitY=1;exitDx=0;exitDy=0;fontFamily=Helvetica;fontSize=12;fontColor=default;startSize=8;endSize=8;" edge="1" parent="1" source="946yijJ7GptTJKzko3uv-2" target="946yijJ7GptTJKzko3uv-2">
          <mxGeometry relative="1" as="geometry" />
        </mxCell>
        <mxCell id="946yijJ7GptTJKzko3uv-6" value="hal" style="rounded=1;whiteSpace=wrap;html=1;strokeWidth=2;fontSize=20;fillColor=#a20025;fontColor=#ffffff;strokeColor=#6F0000;" vertex="1" parent="1">
          <mxGeometry x="41" y="-209" width="290" height="57" as="geometry" />
        </mxCell>
        <mxCell id="946yijJ7GptTJKzko3uv-7" value="plugin" style="rounded=1;whiteSpace=wrap;html=1;strokeWidth=2;fontSize=20;fillColor=#008a00;fontColor=#ffffff;strokeColor=#005700;" vertex="1" parent="1">
          <mxGeometry x="41" y="-352" width="290" height="57" as="geometry" />
        </mxCell>
        <mxCell id="946yijJ7GptTJKzko3uv-8" value="user" style="rounded=1;whiteSpace=wrap;html=1;strokeWidth=2;fontSize=20;fillColor=#e3c800;fontColor=#000000;strokeColor=#B09500;" vertex="1" parent="1">
          <mxGeometry x="-122" y="-419" width="453" height="57" as="geometry" />
        </mxCell>
        <mxCell id="946yijJ7GptTJKzko3uv-9" value="driver" style="rounded=1;whiteSpace=wrap;html=1;strokeWidth=2;fontSize=20;fillColor=#008a00;fontColor=#ffffff;strokeColor=#005700;" vertex="1" parent="1">
          <mxGeometry x="-122" y="-352" width="149" height="200" as="geometry" />
        </mxCell>
        <mxCell id="946yijJ7GptTJKzko3uv-10" value="&amp;nbsp; &amp;nbsp; &amp;nbsp; &amp;nbsp; SOC" style="rounded=1;whiteSpace=wrap;html=1;strokeWidth=2;fontSize=20;fillColor=#0050ef;fontColor=#ffffff;strokeColor=#001DBC;" vertex="1" parent="1">
          <mxGeometry x="-122" y="-144" width="453" height="57" as="geometry" />
        </mxCell>
        <mxCell id="946yijJ7GptTJKzko3uv-11" value="" style="pointerEvents=1;shadow=0;dashed=0;html=1;strokeColor=none;fillColor=#4495D1;labelPosition=center;verticalLabelPosition=bottom;verticalAlign=top;align=center;outlineConnect=0;shape=mxgraph.veeam.cpu;rounded=1;strokeWidth=2;fontFamily=Helvetica;fontSize=12;fontColor=default;" vertex="1" parent="1">
          <mxGeometry x="49" y="-137.9" width="47" height="44.8" as="geometry" />
        </mxCell>
      </root>
    </mxGraphModel>
  </diagram>
  <diagram id="-Aft-KPxZGsj2NL8NK4p" name="资源池">
    <mxGraphModel dx="1787" dy="1208" grid="0" gridSize="10" guides="1" tooltips="1" connect="1" arrows="1" fold="1" page="0" pageScale="1" pageWidth="1169" pageHeight="827" math="0" shadow="0">
      <root>
        <mxCell id="0" />
        <mxCell id="1" parent="0" />
        <mxCell id="At-pxj6DeVAqqZY1hlbw-61" value="&lt;p style=&quot;line-height: 150%;&quot;&gt;&lt;/p&gt;&lt;div style=&quot;line-height: 160%;&quot;&gt;&lt;div style=&quot;color: rgb(212, 212, 212); background-color: rgb(38, 36, 42); font-family: Consolas, &amp;quot;Courier New&amp;quot;, monospace; font-size: 17px; line-height: 160%; white-space-collapse: preserve;&quot;&gt;&lt;span style=&quot;color: #e5c07b;&quot;&gt;acoral_res_pool_ctrl_t&lt;/span&gt;&lt;/div&gt;&lt;/div&gt;acoral_res_pool_ctrl_container&lt;p&gt;&lt;/p&gt;" style="shape=table;startSize=70;container=1;collapsible=0;childLayout=tableLayout;fontSize=18;rounded=1;strokeWidth=2;align=center;verticalAlign=middle;fontFamily=Helvetica;html=1;" parent="1" vertex="1">
          <mxGeometry x="-410" y="-198" width="273" height="370" as="geometry" />
        </mxCell>
        <mxCell id="At-pxj6DeVAqqZY1hlbw-62" value="" style="shape=tableRow;horizontal=0;startSize=0;swimlaneHead=0;swimlaneBody=0;strokeColor=inherit;top=0;left=0;bottom=0;right=0;collapsible=0;dropTarget=0;fillColor=none;points=[[0,0.5],[1,0.5]];portConstraint=eastwest;fontSize=18;rounded=1;strokeWidth=2;align=center;verticalAlign=middle;fontFamily=Helvetica;fontColor=default;" parent="At-pxj6DeVAqqZY1hlbw-61" vertex="1">
          <mxGeometry y="70" width="273" height="60" as="geometry" />
        </mxCell>
        <mxCell id="At-pxj6DeVAqqZY1hlbw-63" value="&lt;div style=&quot;color: rgb(212, 212, 212); background-color: rgb(38, 36, 42); font-family: Consolas, &amp;quot;Courier New&amp;quot;, monospace; font-size: 17px; line-height: 23px; white-space: pre;&quot;&gt;&lt;span style=&quot;color: #56b6c2;&quot;&gt;ACORAL_RES_THREAD&lt;/span&gt;&lt;/div&gt;" style="shape=partialRectangle;whiteSpace=wrap;connectable=0;strokeColor=inherit;overflow=hidden;fillColor=none;top=0;left=0;bottom=0;right=0;pointerEvents=1;fontSize=18;rounded=1;strokeWidth=2;align=center;verticalAlign=middle;fontFamily=Helvetica;fontColor=default;rowspan=1;colspan=3;html=1;" parent="At-pxj6DeVAqqZY1hlbw-62" vertex="1">
          <mxGeometry width="273" height="60" as="geometry">
            <mxRectangle width="91" height="60" as="alternateBounds" />
          </mxGeometry>
        </mxCell>
        <mxCell id="At-pxj6DeVAqqZY1hlbw-64" value="" style="shape=partialRectangle;html=1;whiteSpace=wrap;connectable=0;strokeColor=inherit;overflow=hidden;fillColor=none;top=0;left=0;bottom=0;right=0;pointerEvents=1;fontSize=18;rounded=1;strokeWidth=2;align=center;verticalAlign=middle;fontFamily=Helvetica;fontColor=default;" parent="At-pxj6DeVAqqZY1hlbw-62" vertex="1" visible="0">
          <mxGeometry x="91" width="91" height="60" as="geometry">
            <mxRectangle width="91" height="60" as="alternateBounds" />
          </mxGeometry>
        </mxCell>
        <mxCell id="At-pxj6DeVAqqZY1hlbw-65" value="" style="shape=partialRectangle;html=1;whiteSpace=wrap;connectable=0;strokeColor=inherit;overflow=hidden;fillColor=none;top=0;left=0;bottom=0;right=0;pointerEvents=1;fontSize=18;rounded=1;strokeWidth=2;align=center;verticalAlign=middle;fontFamily=Helvetica;fontColor=default;" parent="At-pxj6DeVAqqZY1hlbw-62" vertex="1" visible="0">
          <mxGeometry x="182" width="91" height="60" as="geometry">
            <mxRectangle width="91" height="60" as="alternateBounds" />
          </mxGeometry>
        </mxCell>
        <mxCell id="At-pxj6DeVAqqZY1hlbw-66" value="" style="shape=tableRow;horizontal=0;startSize=0;swimlaneHead=0;swimlaneBody=0;strokeColor=inherit;top=0;left=0;bottom=0;right=0;collapsible=0;dropTarget=0;fillColor=none;points=[[0,0.5],[1,0.5]];portConstraint=eastwest;fontSize=18;rounded=1;strokeWidth=2;align=center;verticalAlign=middle;fontFamily=Helvetica;fontColor=default;" parent="At-pxj6DeVAqqZY1hlbw-61" vertex="1">
          <mxGeometry y="130" width="273" height="60" as="geometry" />
        </mxCell>
        <mxCell id="At-pxj6DeVAqqZY1hlbw-67" value="&lt;div style=&quot;color: rgb(212, 212, 212); background-color: rgb(38, 36, 42); font-family: Consolas, &amp;quot;Courier New&amp;quot;, monospace; font-size: 17px; line-height: 23px; white-space: pre;&quot;&gt;&lt;span style=&quot;color: #56b6c2;&quot;&gt;ACORAL_RES_EVENT&lt;/span&gt;&lt;/div&gt;" style="shape=partialRectangle;whiteSpace=wrap;connectable=0;strokeColor=inherit;overflow=hidden;fillColor=none;top=0;left=0;bottom=0;right=0;pointerEvents=1;fontSize=18;rounded=1;strokeWidth=2;align=center;verticalAlign=middle;fontFamily=Helvetica;fontColor=default;rowspan=1;colspan=3;html=1;" parent="At-pxj6DeVAqqZY1hlbw-66" vertex="1">
          <mxGeometry width="273" height="60" as="geometry">
            <mxRectangle width="91" height="60" as="alternateBounds" />
          </mxGeometry>
        </mxCell>
        <mxCell id="At-pxj6DeVAqqZY1hlbw-68" value="" style="shape=partialRectangle;html=1;whiteSpace=wrap;connectable=0;strokeColor=inherit;overflow=hidden;fillColor=none;top=0;left=0;bottom=0;right=0;pointerEvents=1;fontSize=18;rounded=1;strokeWidth=2;align=center;verticalAlign=middle;fontFamily=Helvetica;fontColor=default;" parent="At-pxj6DeVAqqZY1hlbw-66" vertex="1" visible="0">
          <mxGeometry x="91" width="91" height="60" as="geometry">
            <mxRectangle width="91" height="60" as="alternateBounds" />
          </mxGeometry>
        </mxCell>
        <mxCell id="At-pxj6DeVAqqZY1hlbw-69" value="" style="shape=partialRectangle;html=1;whiteSpace=wrap;connectable=0;strokeColor=inherit;overflow=hidden;fillColor=none;top=0;left=0;bottom=0;right=0;pointerEvents=1;fontSize=18;rounded=1;strokeWidth=2;align=center;verticalAlign=middle;fontFamily=Helvetica;fontColor=default;" parent="At-pxj6DeVAqqZY1hlbw-66" vertex="1" visible="0">
          <mxGeometry x="182" width="91" height="60" as="geometry">
            <mxRectangle width="91" height="60" as="alternateBounds" />
          </mxGeometry>
        </mxCell>
        <mxCell id="At-pxj6DeVAqqZY1hlbw-70" value="" style="shape=tableRow;horizontal=0;startSize=0;swimlaneHead=0;swimlaneBody=0;strokeColor=inherit;top=0;left=0;bottom=0;right=0;collapsible=0;dropTarget=0;fillColor=none;points=[[0,0.5],[1,0.5]];portConstraint=eastwest;fontSize=18;rounded=1;strokeWidth=2;align=center;verticalAlign=middle;fontFamily=Helvetica;fontColor=default;" parent="At-pxj6DeVAqqZY1hlbw-61" vertex="1">
          <mxGeometry y="190" width="273" height="60" as="geometry" />
        </mxCell>
        <mxCell id="At-pxj6DeVAqqZY1hlbw-71" value="" style="shape=partialRectangle;html=1;whiteSpace=wrap;connectable=0;strokeColor=inherit;overflow=hidden;fillColor=none;top=0;left=0;bottom=0;right=0;pointerEvents=1;fontSize=18;rounded=1;strokeWidth=2;align=center;verticalAlign=middle;fontFamily=Helvetica;fontColor=default;rowspan=1;colspan=3;" parent="At-pxj6DeVAqqZY1hlbw-70" vertex="1">
          <mxGeometry width="273" height="60" as="geometry">
            <mxRectangle width="91" height="60" as="alternateBounds" />
          </mxGeometry>
        </mxCell>
        <mxCell id="At-pxj6DeVAqqZY1hlbw-72" value="" style="shape=partialRectangle;html=1;whiteSpace=wrap;connectable=0;strokeColor=inherit;overflow=hidden;fillColor=none;top=0;left=0;bottom=0;right=0;pointerEvents=1;fontSize=18;rounded=1;strokeWidth=2;align=center;verticalAlign=middle;fontFamily=Helvetica;fontColor=default;" parent="At-pxj6DeVAqqZY1hlbw-70" vertex="1" visible="0">
          <mxGeometry x="91" width="91" height="60" as="geometry">
            <mxRectangle width="91" height="60" as="alternateBounds" />
          </mxGeometry>
        </mxCell>
        <mxCell id="At-pxj6DeVAqqZY1hlbw-73" value="" style="shape=partialRectangle;html=1;whiteSpace=wrap;connectable=0;strokeColor=inherit;overflow=hidden;fillColor=none;top=0;left=0;bottom=0;right=0;pointerEvents=1;fontSize=18;rounded=1;strokeWidth=2;align=center;verticalAlign=middle;fontFamily=Helvetica;fontColor=default;" parent="At-pxj6DeVAqqZY1hlbw-70" vertex="1" visible="0">
          <mxGeometry x="182" width="91" height="60" as="geometry">
            <mxRectangle width="91" height="60" as="alternateBounds" />
          </mxGeometry>
        </mxCell>
        <mxCell id="At-pxj6DeVAqqZY1hlbw-74" style="shape=tableRow;horizontal=0;startSize=0;swimlaneHead=0;swimlaneBody=0;strokeColor=inherit;top=0;left=0;bottom=0;right=0;collapsible=0;dropTarget=0;fillColor=none;points=[[0,0.5],[1,0.5]];portConstraint=eastwest;fontSize=18;rounded=1;strokeWidth=2;align=center;verticalAlign=middle;fontFamily=Helvetica;fontColor=default;" parent="At-pxj6DeVAqqZY1hlbw-61" vertex="1">
          <mxGeometry y="250" width="273" height="60" as="geometry" />
        </mxCell>
        <mxCell id="At-pxj6DeVAqqZY1hlbw-75" value="&lt;div style=&quot;color: rgb(212, 212, 212); background-color: rgb(38, 36, 42); font-family: Consolas, &amp;quot;Courier New&amp;quot;, monospace; font-size: 17px; line-height: 23px; white-space: pre;&quot;&gt;&lt;span style=&quot;color: #56b6c2;&quot;&gt;ACORAL_RES_MST&lt;/span&gt;&lt;/div&gt;" style="shape=partialRectangle;whiteSpace=wrap;connectable=0;strokeColor=inherit;overflow=hidden;fillColor=none;top=0;left=0;bottom=0;right=0;pointerEvents=1;fontSize=18;rounded=1;strokeWidth=2;align=center;verticalAlign=middle;fontFamily=Helvetica;fontColor=default;rowspan=1;colspan=3;html=1;" parent="At-pxj6DeVAqqZY1hlbw-74" vertex="1">
          <mxGeometry width="273" height="60" as="geometry">
            <mxRectangle width="91" height="60" as="alternateBounds" />
          </mxGeometry>
        </mxCell>
        <mxCell id="At-pxj6DeVAqqZY1hlbw-76" style="shape=partialRectangle;html=1;whiteSpace=wrap;connectable=0;strokeColor=inherit;overflow=hidden;fillColor=none;top=0;left=0;bottom=0;right=0;pointerEvents=1;fontSize=18;rounded=1;strokeWidth=2;align=center;verticalAlign=middle;fontFamily=Helvetica;fontColor=default;" parent="At-pxj6DeVAqqZY1hlbw-74" vertex="1" visible="0">
          <mxGeometry x="91" width="91" height="60" as="geometry">
            <mxRectangle width="91" height="60" as="alternateBounds" />
          </mxGeometry>
        </mxCell>
        <mxCell id="At-pxj6DeVAqqZY1hlbw-77" style="shape=partialRectangle;html=1;whiteSpace=wrap;connectable=0;strokeColor=inherit;overflow=hidden;fillColor=none;top=0;left=0;bottom=0;right=0;pointerEvents=1;fontSize=18;rounded=1;strokeWidth=2;align=center;verticalAlign=middle;fontFamily=Helvetica;fontColor=default;" parent="At-pxj6DeVAqqZY1hlbw-74" vertex="1" visible="0">
          <mxGeometry x="182" width="91" height="60" as="geometry">
            <mxRectangle width="91" height="60" as="alternateBounds" />
          </mxGeometry>
        </mxCell>
        <mxCell id="At-pxj6DeVAqqZY1hlbw-78" style="shape=tableRow;horizontal=0;startSize=0;swimlaneHead=0;swimlaneBody=0;strokeColor=inherit;top=0;left=0;bottom=0;right=0;collapsible=0;dropTarget=0;fillColor=none;points=[[0,0.5],[1,0.5]];portConstraint=eastwest;fontSize=18;rounded=1;strokeWidth=2;align=center;verticalAlign=middle;fontFamily=Helvetica;fontColor=default;" parent="At-pxj6DeVAqqZY1hlbw-61" vertex="1">
          <mxGeometry y="310" width="273" height="60" as="geometry" />
        </mxCell>
        <mxCell id="At-pxj6DeVAqqZY1hlbw-79" value="&lt;div style=&quot;color: rgb(212, 212, 212); background-color: rgb(38, 36, 42); font-family: Consolas, &amp;quot;Courier New&amp;quot;, monospace; font-size: 17px; line-height: 23px; white-space: pre;&quot;&gt;&lt;span style=&quot;color: #56b6c2;&quot;&gt;ACORAL_RES_MSG&lt;/span&gt;&lt;/div&gt;" style="shape=partialRectangle;whiteSpace=wrap;connectable=0;strokeColor=inherit;overflow=hidden;fillColor=none;top=0;left=0;bottom=0;right=0;pointerEvents=1;fontSize=18;rounded=1;strokeWidth=2;align=center;verticalAlign=middle;fontFamily=Helvetica;fontColor=default;rowspan=1;colspan=3;html=1;" parent="At-pxj6DeVAqqZY1hlbw-78" vertex="1">
          <mxGeometry width="273" height="60" as="geometry">
            <mxRectangle width="91" height="60" as="alternateBounds" />
          </mxGeometry>
        </mxCell>
        <mxCell id="At-pxj6DeVAqqZY1hlbw-80" style="shape=partialRectangle;html=1;whiteSpace=wrap;connectable=0;strokeColor=inherit;overflow=hidden;fillColor=none;top=0;left=0;bottom=0;right=0;pointerEvents=1;fontSize=18;rounded=1;strokeWidth=2;align=center;verticalAlign=middle;fontFamily=Helvetica;fontColor=default;" parent="At-pxj6DeVAqqZY1hlbw-78" vertex="1" visible="0">
          <mxGeometry x="91" width="91" height="60" as="geometry">
            <mxRectangle width="91" height="60" as="alternateBounds" />
          </mxGeometry>
        </mxCell>
        <mxCell id="At-pxj6DeVAqqZY1hlbw-81" style="shape=partialRectangle;html=1;whiteSpace=wrap;connectable=0;strokeColor=inherit;overflow=hidden;fillColor=none;top=0;left=0;bottom=0;right=0;pointerEvents=1;fontSize=18;rounded=1;strokeWidth=2;align=center;verticalAlign=middle;fontFamily=Helvetica;fontColor=default;" parent="At-pxj6DeVAqqZY1hlbw-78" vertex="1" visible="0">
          <mxGeometry x="182" width="91" height="60" as="geometry">
            <mxRectangle width="91" height="60" as="alternateBounds" />
          </mxGeometry>
        </mxCell>
        <mxCell id="At-pxj6DeVAqqZY1hlbw-114" value="" style="edgeStyle=elbowEdgeStyle;elbow=horizontal;endArrow=classic;html=1;curved=0;rounded=0;endSize=8;startSize=8;fontFamily=Helvetica;fontSize=16;fontColor=default;strokeWidth=2;exitX=1;exitY=0.167;exitDx=0;exitDy=0;exitPerimeter=0;" parent="1" edge="1">
          <mxGeometry width="50" height="50" relative="1" as="geometry">
            <mxPoint x="-137" y="-114.9659999999999" as="sourcePoint" />
            <mxPoint x="800" y="-115" as="targetPoint" />
            <Array as="points">
              <mxPoint x="18" y="-115" />
            </Array>
          </mxGeometry>
        </mxCell>
        <mxCell id="At-pxj6DeVAqqZY1hlbw-116" value="pools" style="edgeLabel;html=1;align=center;verticalAlign=middle;resizable=0;points=[];fontSize=18;rounded=1;strokeColor=default;strokeWidth=2;fontFamily=Helvetica;fontColor=default;fillColor=default;" parent="At-pxj6DeVAqqZY1hlbw-114" vertex="1" connectable="0">
          <mxGeometry x="0.1152" y="3" relative="1" as="geometry">
            <mxPoint x="6" y="-14" as="offset" />
          </mxGeometry>
        </mxCell>
        <mxCell id="At-pxj6DeVAqqZY1hlbw-115" value="" style="edgeStyle=elbowEdgeStyle;elbow=horizontal;endArrow=classic;html=1;curved=0;rounded=0;endSize=8;startSize=8;fontFamily=Helvetica;fontSize=16;fontColor=default;strokeWidth=2;exitX=1.003;exitY=0.735;exitDx=0;exitDy=0;exitPerimeter=0;" parent="1" edge="1">
          <mxGeometry width="50" height="50" relative="1" as="geometry">
            <mxPoint x="-136" y="-79.0300000000002" as="sourcePoint" />
            <mxPoint x="800" y="-79" as="targetPoint" />
            <Array as="points">
              <mxPoint x="28" y="-79" />
            </Array>
          </mxGeometry>
        </mxCell>
        <mxCell id="At-pxj6DeVAqqZY1hlbw-117" value="free_pools" style="edgeLabel;html=1;align=center;verticalAlign=middle;resizable=0;points=[];fontSize=18;rounded=1;strokeColor=default;strokeWidth=2;fontFamily=Helvetica;fontColor=default;fillColor=default;" parent="At-pxj6DeVAqqZY1hlbw-115" vertex="1" connectable="0">
          <mxGeometry x="0.0358" y="-3" relative="1" as="geometry">
            <mxPoint x="45" y="-18" as="offset" />
          </mxGeometry>
        </mxCell>
        <mxCell id="At-pxj6DeVAqqZY1hlbw-119" value="&lt;div style=&quot;color: rgb(212, 212, 212); background-color: rgb(38, 36, 42); font-family: Consolas, &amp;quot;Courier New&amp;quot;, monospace; font-size: 17px; line-height: 23px; white-space-collapse: preserve;&quot;&gt;&lt;span style=&quot;color: #e5c07b;&quot;&gt;acoral_pool_t&lt;/span&gt;&lt;/div&gt;" style="shape=table;startSize=62;container=1;collapsible=0;childLayout=tableLayout;fontSize=18;rounded=1;strokeWidth=2;align=center;verticalAlign=middle;fontFamily=Helvetica;html=1;" parent="1" vertex="1">
          <mxGeometry x="5" y="59" width="171" height="422" as="geometry" />
        </mxCell>
        <mxCell id="At-pxj6DeVAqqZY1hlbw-120" value="" style="shape=tableRow;horizontal=0;startSize=0;swimlaneHead=0;swimlaneBody=0;strokeColor=inherit;top=0;left=0;bottom=0;right=0;collapsible=0;dropTarget=0;fillColor=none;points=[[0,0.5],[1,0.5]];portConstraint=eastwest;fontSize=18;rounded=1;strokeWidth=2;align=center;verticalAlign=middle;fontFamily=Helvetica;fontColor=default;" parent="At-pxj6DeVAqqZY1hlbw-119" vertex="1">
          <mxGeometry y="62" width="171" height="40" as="geometry" />
        </mxCell>
        <mxCell id="At-pxj6DeVAqqZY1hlbw-121" value="&lt;div style=&quot;color: rgb(212, 212, 212); background-color: rgb(38, 36, 42); font-family: Consolas, &amp;quot;Courier New&amp;quot;, monospace; font-size: 17px; line-height: 23px; white-space: pre;&quot;&gt;&lt;span style=&quot;color: #e06c75;&quot;&gt;base_adr&lt;/span&gt;&lt;/div&gt;" style="shape=partialRectangle;whiteSpace=wrap;connectable=0;strokeColor=inherit;overflow=hidden;fillColor=none;top=0;left=0;bottom=0;right=0;pointerEvents=1;fontSize=18;rounded=1;strokeWidth=2;align=center;verticalAlign=middle;fontFamily=Helvetica;fontColor=default;rowspan=1;colspan=3;html=1;" parent="At-pxj6DeVAqqZY1hlbw-120" vertex="1">
          <mxGeometry width="171" height="40" as="geometry">
            <mxRectangle width="56" height="40" as="alternateBounds" />
          </mxGeometry>
        </mxCell>
        <mxCell id="At-pxj6DeVAqqZY1hlbw-122" value="" style="shape=partialRectangle;html=1;whiteSpace=wrap;connectable=0;strokeColor=inherit;overflow=hidden;fillColor=none;top=0;left=0;bottom=0;right=0;pointerEvents=1;fontSize=18;rounded=1;strokeWidth=2;align=center;verticalAlign=middle;fontFamily=Helvetica;fontColor=default;" parent="At-pxj6DeVAqqZY1hlbw-120" vertex="1" visible="0">
          <mxGeometry x="56" width="59" height="40" as="geometry">
            <mxRectangle width="59" height="40" as="alternateBounds" />
          </mxGeometry>
        </mxCell>
        <mxCell id="At-pxj6DeVAqqZY1hlbw-123" value="" style="shape=partialRectangle;html=1;whiteSpace=wrap;connectable=0;strokeColor=inherit;overflow=hidden;fillColor=none;top=0;left=0;bottom=0;right=0;pointerEvents=1;fontSize=18;rounded=1;strokeWidth=2;align=center;verticalAlign=middle;fontFamily=Helvetica;fontColor=default;" parent="At-pxj6DeVAqqZY1hlbw-120" vertex="1" visible="0">
          <mxGeometry x="115" width="56" height="40" as="geometry">
            <mxRectangle width="56" height="40" as="alternateBounds" />
          </mxGeometry>
        </mxCell>
        <mxCell id="At-pxj6DeVAqqZY1hlbw-124" value="" style="shape=tableRow;horizontal=0;startSize=0;swimlaneHead=0;swimlaneBody=0;strokeColor=inherit;top=0;left=0;bottom=0;right=0;collapsible=0;dropTarget=0;fillColor=none;points=[[0,0.5],[1,0.5]];portConstraint=eastwest;fontSize=18;rounded=1;strokeWidth=2;align=center;verticalAlign=middle;fontFamily=Helvetica;fontColor=default;" parent="At-pxj6DeVAqqZY1hlbw-119" vertex="1">
          <mxGeometry y="102" width="171" height="40" as="geometry" />
        </mxCell>
        <mxCell id="At-pxj6DeVAqqZY1hlbw-125" value="&lt;div style=&quot;color: rgb(212, 212, 212); background-color: rgb(38, 36, 42); font-family: Consolas, &amp;quot;Courier New&amp;quot;, monospace; font-size: 17px; line-height: 23px; white-space: pre;&quot;&gt;&lt;span style=&quot;color: #e06c75;&quot;&gt;res_free&lt;/span&gt;&lt;/div&gt;" style="shape=partialRectangle;whiteSpace=wrap;connectable=0;strokeColor=inherit;overflow=hidden;fillColor=none;top=0;left=0;bottom=0;right=0;pointerEvents=1;fontSize=18;rounded=1;strokeWidth=2;align=center;verticalAlign=middle;fontFamily=Helvetica;fontColor=default;rowspan=1;colspan=3;html=1;" parent="At-pxj6DeVAqqZY1hlbw-124" vertex="1">
          <mxGeometry width="171" height="40" as="geometry">
            <mxRectangle width="56" height="40" as="alternateBounds" />
          </mxGeometry>
        </mxCell>
        <mxCell id="At-pxj6DeVAqqZY1hlbw-126" value="" style="shape=partialRectangle;html=1;whiteSpace=wrap;connectable=0;strokeColor=inherit;overflow=hidden;fillColor=none;top=0;left=0;bottom=0;right=0;pointerEvents=1;fontSize=18;rounded=1;strokeWidth=2;align=center;verticalAlign=middle;fontFamily=Helvetica;fontColor=default;" parent="At-pxj6DeVAqqZY1hlbw-124" vertex="1" visible="0">
          <mxGeometry x="56" width="59" height="40" as="geometry">
            <mxRectangle width="59" height="40" as="alternateBounds" />
          </mxGeometry>
        </mxCell>
        <mxCell id="At-pxj6DeVAqqZY1hlbw-127" value="" style="shape=partialRectangle;html=1;whiteSpace=wrap;connectable=0;strokeColor=inherit;overflow=hidden;fillColor=none;top=0;left=0;bottom=0;right=0;pointerEvents=1;fontSize=18;rounded=1;strokeWidth=2;align=center;verticalAlign=middle;fontFamily=Helvetica;fontColor=default;" parent="At-pxj6DeVAqqZY1hlbw-124" vertex="1" visible="0">
          <mxGeometry x="115" width="56" height="40" as="geometry">
            <mxRectangle width="56" height="40" as="alternateBounds" />
          </mxGeometry>
        </mxCell>
        <mxCell id="At-pxj6DeVAqqZY1hlbw-128" value="" style="shape=tableRow;horizontal=0;startSize=0;swimlaneHead=0;swimlaneBody=0;strokeColor=inherit;top=0;left=0;bottom=0;right=0;collapsible=0;dropTarget=0;fillColor=none;points=[[0,0.5],[1,0.5]];portConstraint=eastwest;fontSize=18;rounded=1;strokeWidth=2;align=center;verticalAlign=middle;fontFamily=Helvetica;fontColor=default;" parent="At-pxj6DeVAqqZY1hlbw-119" vertex="1">
          <mxGeometry y="142" width="171" height="40" as="geometry" />
        </mxCell>
        <mxCell id="At-pxj6DeVAqqZY1hlbw-129" value="&lt;div style=&quot;color: rgb(212, 212, 212); background-color: rgb(38, 36, 42); font-family: Consolas, &amp;quot;Courier New&amp;quot;, monospace; font-size: 17px; line-height: 23px; white-space: pre;&quot;&gt;&lt;span style=&quot;color: #e06c75;&quot;&gt;id = &lt;/span&gt;&lt;/div&gt;" style="shape=partialRectangle;html=1;whiteSpace=wrap;connectable=0;strokeColor=inherit;overflow=hidden;fillColor=none;top=0;left=0;bottom=0;right=0;pointerEvents=1;fontSize=18;rounded=1;strokeWidth=2;align=center;verticalAlign=middle;fontFamily=Helvetica;fontColor=default;rowspan=1;colspan=3;" parent="At-pxj6DeVAqqZY1hlbw-128" vertex="1">
          <mxGeometry width="171" height="40" as="geometry">
            <mxRectangle width="56" height="40" as="alternateBounds" />
          </mxGeometry>
        </mxCell>
        <mxCell id="At-pxj6DeVAqqZY1hlbw-130" value="" style="shape=partialRectangle;html=1;whiteSpace=wrap;connectable=0;strokeColor=inherit;overflow=hidden;fillColor=none;top=0;left=0;bottom=0;right=0;pointerEvents=1;fontSize=18;rounded=1;strokeWidth=2;align=center;verticalAlign=middle;fontFamily=Helvetica;fontColor=default;" parent="At-pxj6DeVAqqZY1hlbw-128" vertex="1" visible="0">
          <mxGeometry x="56" width="59" height="40" as="geometry">
            <mxRectangle width="59" height="40" as="alternateBounds" />
          </mxGeometry>
        </mxCell>
        <mxCell id="At-pxj6DeVAqqZY1hlbw-131" value="" style="shape=partialRectangle;html=1;whiteSpace=wrap;connectable=0;strokeColor=inherit;overflow=hidden;fillColor=none;top=0;left=0;bottom=0;right=0;pointerEvents=1;fontSize=18;rounded=1;strokeWidth=2;align=center;verticalAlign=middle;fontFamily=Helvetica;fontColor=default;" parent="At-pxj6DeVAqqZY1hlbw-128" vertex="1" visible="0">
          <mxGeometry x="115" width="56" height="40" as="geometry">
            <mxRectangle width="56" height="40" as="alternateBounds" />
          </mxGeometry>
        </mxCell>
        <mxCell id="At-pxj6DeVAqqZY1hlbw-132" style="shape=tableRow;horizontal=0;startSize=0;swimlaneHead=0;swimlaneBody=0;strokeColor=inherit;top=0;left=0;bottom=0;right=0;collapsible=0;dropTarget=0;fillColor=none;points=[[0,0.5],[1,0.5]];portConstraint=eastwest;fontSize=18;rounded=1;strokeWidth=2;align=center;verticalAlign=middle;fontFamily=Helvetica;fontColor=default;" parent="At-pxj6DeVAqqZY1hlbw-119" vertex="1">
          <mxGeometry y="182" width="171" height="40" as="geometry" />
        </mxCell>
        <mxCell id="At-pxj6DeVAqqZY1hlbw-133" value="&lt;div style=&quot;color: rgb(212, 212, 212); background-color: rgb(38, 36, 42); font-family: Consolas, &amp;quot;Courier New&amp;quot;, monospace; font-size: 17px; line-height: 23px; white-space: pre;&quot;&gt;&lt;span style=&quot;color: #e06c75;&quot;&gt;size&lt;/span&gt;&lt;/div&gt;" style="shape=partialRectangle;whiteSpace=wrap;connectable=0;strokeColor=inherit;overflow=hidden;fillColor=none;top=0;left=0;bottom=0;right=0;pointerEvents=1;fontSize=18;rounded=1;strokeWidth=2;align=center;verticalAlign=middle;fontFamily=Helvetica;fontColor=default;rowspan=1;colspan=3;html=1;" parent="At-pxj6DeVAqqZY1hlbw-132" vertex="1">
          <mxGeometry width="171" height="40" as="geometry">
            <mxRectangle width="56" height="40" as="alternateBounds" />
          </mxGeometry>
        </mxCell>
        <mxCell id="At-pxj6DeVAqqZY1hlbw-134" style="shape=partialRectangle;html=1;whiteSpace=wrap;connectable=0;strokeColor=inherit;overflow=hidden;fillColor=none;top=0;left=0;bottom=0;right=0;pointerEvents=1;fontSize=18;rounded=1;strokeWidth=2;align=center;verticalAlign=middle;fontFamily=Helvetica;fontColor=default;" parent="At-pxj6DeVAqqZY1hlbw-132" vertex="1" visible="0">
          <mxGeometry x="56" width="59" height="40" as="geometry">
            <mxRectangle width="59" height="40" as="alternateBounds" />
          </mxGeometry>
        </mxCell>
        <mxCell id="At-pxj6DeVAqqZY1hlbw-135" style="shape=partialRectangle;html=1;whiteSpace=wrap;connectable=0;strokeColor=inherit;overflow=hidden;fillColor=none;top=0;left=0;bottom=0;right=0;pointerEvents=1;fontSize=18;rounded=1;strokeWidth=2;align=center;verticalAlign=middle;fontFamily=Helvetica;fontColor=default;" parent="At-pxj6DeVAqqZY1hlbw-132" vertex="1" visible="0">
          <mxGeometry x="115" width="56" height="40" as="geometry">
            <mxRectangle width="56" height="40" as="alternateBounds" />
          </mxGeometry>
        </mxCell>
        <mxCell id="At-pxj6DeVAqqZY1hlbw-136" style="shape=tableRow;horizontal=0;startSize=0;swimlaneHead=0;swimlaneBody=0;strokeColor=inherit;top=0;left=0;bottom=0;right=0;collapsible=0;dropTarget=0;fillColor=none;points=[[0,0.5],[1,0.5]];portConstraint=eastwest;fontSize=18;rounded=1;strokeWidth=2;align=center;verticalAlign=middle;fontFamily=Helvetica;fontColor=default;" parent="At-pxj6DeVAqqZY1hlbw-119" vertex="1">
          <mxGeometry y="222" width="171" height="40" as="geometry" />
        </mxCell>
        <mxCell id="At-pxj6DeVAqqZY1hlbw-137" value="&lt;div style=&quot;color: rgb(212, 212, 212); background-color: rgb(38, 36, 42); font-family: Consolas, &amp;quot;Courier New&amp;quot;, monospace; font-size: 17px; line-height: 23px; white-space: pre;&quot;&gt;&lt;span style=&quot;color: #e06c75;&quot;&gt;num&lt;/span&gt;&lt;/div&gt;" style="shape=partialRectangle;whiteSpace=wrap;connectable=0;strokeColor=inherit;overflow=hidden;fillColor=none;top=0;left=0;bottom=0;right=0;pointerEvents=1;fontSize=18;rounded=1;strokeWidth=2;align=center;verticalAlign=middle;fontFamily=Helvetica;fontColor=default;rowspan=1;colspan=3;html=1;" parent="At-pxj6DeVAqqZY1hlbw-136" vertex="1">
          <mxGeometry width="171" height="40" as="geometry">
            <mxRectangle width="56" height="40" as="alternateBounds" />
          </mxGeometry>
        </mxCell>
        <mxCell id="At-pxj6DeVAqqZY1hlbw-138" style="shape=partialRectangle;html=1;whiteSpace=wrap;connectable=0;strokeColor=inherit;overflow=hidden;fillColor=none;top=0;left=0;bottom=0;right=0;pointerEvents=1;fontSize=18;rounded=1;strokeWidth=2;align=center;verticalAlign=middle;fontFamily=Helvetica;fontColor=default;" parent="At-pxj6DeVAqqZY1hlbw-136" vertex="1" visible="0">
          <mxGeometry x="56" width="59" height="40" as="geometry">
            <mxRectangle width="59" height="40" as="alternateBounds" />
          </mxGeometry>
        </mxCell>
        <mxCell id="At-pxj6DeVAqqZY1hlbw-139" style="shape=partialRectangle;html=1;whiteSpace=wrap;connectable=0;strokeColor=inherit;overflow=hidden;fillColor=none;top=0;left=0;bottom=0;right=0;pointerEvents=1;fontSize=18;rounded=1;strokeWidth=2;align=center;verticalAlign=middle;fontFamily=Helvetica;fontColor=default;" parent="At-pxj6DeVAqqZY1hlbw-136" vertex="1" visible="0">
          <mxGeometry x="115" width="56" height="40" as="geometry">
            <mxRectangle width="56" height="40" as="alternateBounds" />
          </mxGeometry>
        </mxCell>
        <mxCell id="At-pxj6DeVAqqZY1hlbw-160" style="shape=tableRow;horizontal=0;startSize=0;swimlaneHead=0;swimlaneBody=0;strokeColor=inherit;top=0;left=0;bottom=0;right=0;collapsible=0;dropTarget=0;fillColor=none;points=[[0,0.5],[1,0.5]];portConstraint=eastwest;fontSize=18;rounded=1;strokeWidth=2;align=center;verticalAlign=middle;fontFamily=Helvetica;fontColor=default;" parent="At-pxj6DeVAqqZY1hlbw-119" vertex="1">
          <mxGeometry y="262" width="171" height="40" as="geometry" />
        </mxCell>
        <mxCell id="At-pxj6DeVAqqZY1hlbw-161" value="&lt;div style=&quot;color: rgb(212, 212, 212); background-color: rgb(38, 36, 42); font-family: Consolas, &amp;quot;Courier New&amp;quot;, monospace; font-size: 17px; line-height: 23px; white-space: pre;&quot;&gt;&lt;span style=&quot;color: #e06c75;&quot;&gt;free_num&lt;/span&gt;&lt;/div&gt;" style="shape=partialRectangle;whiteSpace=wrap;connectable=0;strokeColor=inherit;overflow=hidden;fillColor=none;top=0;left=0;bottom=0;right=0;pointerEvents=1;fontSize=18;rounded=1;strokeWidth=2;align=center;verticalAlign=middle;fontFamily=Helvetica;fontColor=default;html=1;rowspan=1;colspan=3;" parent="At-pxj6DeVAqqZY1hlbw-160" vertex="1">
          <mxGeometry width="171" height="40" as="geometry">
            <mxRectangle width="56" height="40" as="alternateBounds" />
          </mxGeometry>
        </mxCell>
        <mxCell id="At-pxj6DeVAqqZY1hlbw-162" style="shape=partialRectangle;html=1;whiteSpace=wrap;connectable=0;strokeColor=inherit;overflow=hidden;fillColor=none;top=0;left=0;bottom=0;right=0;pointerEvents=1;fontSize=18;rounded=1;strokeWidth=2;align=center;verticalAlign=middle;fontFamily=Helvetica;fontColor=default;" parent="At-pxj6DeVAqqZY1hlbw-160" vertex="1" visible="0">
          <mxGeometry x="56" width="59" height="40" as="geometry">
            <mxRectangle width="59" height="40" as="alternateBounds" />
          </mxGeometry>
        </mxCell>
        <mxCell id="At-pxj6DeVAqqZY1hlbw-163" style="shape=partialRectangle;html=1;whiteSpace=wrap;connectable=0;strokeColor=inherit;overflow=hidden;fillColor=none;top=0;left=0;bottom=0;right=0;pointerEvents=1;fontSize=18;rounded=1;strokeWidth=2;align=center;verticalAlign=middle;fontFamily=Helvetica;fontColor=default;" parent="At-pxj6DeVAqqZY1hlbw-160" vertex="1" visible="0">
          <mxGeometry x="115" width="56" height="40" as="geometry">
            <mxRectangle width="56" height="40" as="alternateBounds" />
          </mxGeometry>
        </mxCell>
        <mxCell id="At-pxj6DeVAqqZY1hlbw-156" style="shape=tableRow;horizontal=0;startSize=0;swimlaneHead=0;swimlaneBody=0;strokeColor=inherit;top=0;left=0;bottom=0;right=0;collapsible=0;dropTarget=0;fillColor=none;points=[[0,0.5],[1,0.5]];portConstraint=eastwest;fontSize=18;rounded=1;strokeWidth=2;align=center;verticalAlign=middle;fontFamily=Helvetica;fontColor=default;" parent="At-pxj6DeVAqqZY1hlbw-119" vertex="1">
          <mxGeometry y="302" width="171" height="40" as="geometry" />
        </mxCell>
        <mxCell id="At-pxj6DeVAqqZY1hlbw-157" value="&lt;div style=&quot;color: rgb(212, 212, 212); background-color: rgb(38, 36, 42); font-family: Consolas, &amp;quot;Courier New&amp;quot;, monospace; font-size: 17px; line-height: 23px; white-space: pre;&quot;&gt;&lt;span style=&quot;color: #e06c75;&quot;&gt;ctrl&lt;/span&gt;&lt;/div&gt;" style="shape=partialRectangle;whiteSpace=wrap;connectable=0;strokeColor=inherit;overflow=hidden;fillColor=none;top=0;left=0;bottom=0;right=0;pointerEvents=1;fontSize=18;rounded=1;strokeWidth=2;align=center;verticalAlign=middle;fontFamily=Helvetica;fontColor=default;html=1;rowspan=1;colspan=3;" parent="At-pxj6DeVAqqZY1hlbw-156" vertex="1">
          <mxGeometry width="171" height="40" as="geometry">
            <mxRectangle width="56" height="40" as="alternateBounds" />
          </mxGeometry>
        </mxCell>
        <mxCell id="At-pxj6DeVAqqZY1hlbw-158" style="shape=partialRectangle;html=1;whiteSpace=wrap;connectable=0;strokeColor=inherit;overflow=hidden;fillColor=none;top=0;left=0;bottom=0;right=0;pointerEvents=1;fontSize=18;rounded=1;strokeWidth=2;align=center;verticalAlign=middle;fontFamily=Helvetica;fontColor=default;" parent="At-pxj6DeVAqqZY1hlbw-156" vertex="1" visible="0">
          <mxGeometry x="56" width="59" height="40" as="geometry">
            <mxRectangle width="59" height="40" as="alternateBounds" />
          </mxGeometry>
        </mxCell>
        <mxCell id="At-pxj6DeVAqqZY1hlbw-159" style="shape=partialRectangle;html=1;whiteSpace=wrap;connectable=0;strokeColor=inherit;overflow=hidden;fillColor=none;top=0;left=0;bottom=0;right=0;pointerEvents=1;fontSize=18;rounded=1;strokeWidth=2;align=center;verticalAlign=middle;fontFamily=Helvetica;fontColor=default;" parent="At-pxj6DeVAqqZY1hlbw-156" vertex="1" visible="0">
          <mxGeometry x="115" width="56" height="40" as="geometry">
            <mxRectangle width="56" height="40" as="alternateBounds" />
          </mxGeometry>
        </mxCell>
        <mxCell id="At-pxj6DeVAqqZY1hlbw-152" style="shape=tableRow;horizontal=0;startSize=0;swimlaneHead=0;swimlaneBody=0;strokeColor=inherit;top=0;left=0;bottom=0;right=0;collapsible=0;dropTarget=0;fillColor=none;points=[[0,0.5],[1,0.5]];portConstraint=eastwest;fontSize=18;rounded=1;strokeWidth=2;align=center;verticalAlign=middle;fontFamily=Helvetica;fontColor=default;" parent="At-pxj6DeVAqqZY1hlbw-119" vertex="1">
          <mxGeometry y="342" width="171" height="40" as="geometry" />
        </mxCell>
        <mxCell id="At-pxj6DeVAqqZY1hlbw-153" value="&lt;div style=&quot;color: rgb(212, 212, 212); background-color: rgb(38, 36, 42); font-family: Consolas, &amp;quot;Courier New&amp;quot;, monospace; font-size: 17px; line-height: 23px; white-space: pre;&quot;&gt;&lt;span style=&quot;color: #e06c75;&quot;&gt;ctrl_list&lt;/span&gt;&lt;/div&gt;" style="shape=partialRectangle;whiteSpace=wrap;connectable=0;strokeColor=inherit;overflow=hidden;fillColor=none;top=0;left=0;bottom=0;right=0;pointerEvents=1;fontSize=18;rounded=1;strokeWidth=2;align=center;verticalAlign=middle;fontFamily=Helvetica;fontColor=default;html=1;rowspan=1;colspan=3;" parent="At-pxj6DeVAqqZY1hlbw-152" vertex="1">
          <mxGeometry width="171" height="40" as="geometry">
            <mxRectangle width="56" height="40" as="alternateBounds" />
          </mxGeometry>
        </mxCell>
        <mxCell id="At-pxj6DeVAqqZY1hlbw-154" style="shape=partialRectangle;html=1;whiteSpace=wrap;connectable=0;strokeColor=inherit;overflow=hidden;fillColor=none;top=0;left=0;bottom=0;right=0;pointerEvents=1;fontSize=18;rounded=1;strokeWidth=2;align=center;verticalAlign=middle;fontFamily=Helvetica;fontColor=default;" parent="At-pxj6DeVAqqZY1hlbw-152" vertex="1" visible="0">
          <mxGeometry x="56" width="59" height="40" as="geometry">
            <mxRectangle width="59" height="40" as="alternateBounds" />
          </mxGeometry>
        </mxCell>
        <mxCell id="At-pxj6DeVAqqZY1hlbw-155" style="shape=partialRectangle;html=1;whiteSpace=wrap;connectable=0;strokeColor=inherit;overflow=hidden;fillColor=none;top=0;left=0;bottom=0;right=0;pointerEvents=1;fontSize=18;rounded=1;strokeWidth=2;align=center;verticalAlign=middle;fontFamily=Helvetica;fontColor=default;" parent="At-pxj6DeVAqqZY1hlbw-152" vertex="1" visible="0">
          <mxGeometry x="115" width="56" height="40" as="geometry">
            <mxRectangle width="56" height="40" as="alternateBounds" />
          </mxGeometry>
        </mxCell>
        <mxCell id="At-pxj6DeVAqqZY1hlbw-148" style="shape=tableRow;horizontal=0;startSize=0;swimlaneHead=0;swimlaneBody=0;strokeColor=inherit;top=0;left=0;bottom=0;right=0;collapsible=0;dropTarget=0;fillColor=none;points=[[0,0.5],[1,0.5]];portConstraint=eastwest;fontSize=18;rounded=1;strokeWidth=2;align=center;verticalAlign=middle;fontFamily=Helvetica;fontColor=default;" parent="At-pxj6DeVAqqZY1hlbw-119" vertex="1">
          <mxGeometry y="382" width="171" height="40" as="geometry" />
        </mxCell>
        <mxCell id="At-pxj6DeVAqqZY1hlbw-149" value="&lt;div style=&quot;color: rgb(212, 212, 212); background-color: rgb(38, 36, 42); font-family: Consolas, &amp;quot;Courier New&amp;quot;, monospace; font-size: 17px; line-height: 23px; white-space: pre;&quot;&gt;&lt;span style=&quot;color: #e06c75;&quot;&gt;free_list&lt;/span&gt;&lt;/div&gt;" style="shape=partialRectangle;whiteSpace=wrap;connectable=0;strokeColor=inherit;overflow=hidden;fillColor=none;top=0;left=0;bottom=0;right=0;pointerEvents=1;fontSize=18;rounded=1;strokeWidth=2;align=center;verticalAlign=middle;fontFamily=Helvetica;fontColor=default;html=1;rowspan=1;colspan=3;" parent="At-pxj6DeVAqqZY1hlbw-148" vertex="1">
          <mxGeometry width="171" height="40" as="geometry">
            <mxRectangle width="56" height="40" as="alternateBounds" />
          </mxGeometry>
        </mxCell>
        <mxCell id="At-pxj6DeVAqqZY1hlbw-150" style="shape=partialRectangle;html=1;whiteSpace=wrap;connectable=0;strokeColor=inherit;overflow=hidden;fillColor=none;top=0;left=0;bottom=0;right=0;pointerEvents=1;fontSize=18;rounded=1;strokeWidth=2;align=center;verticalAlign=middle;fontFamily=Helvetica;fontColor=default;" parent="At-pxj6DeVAqqZY1hlbw-148" vertex="1" visible="0">
          <mxGeometry x="56" width="59" height="40" as="geometry">
            <mxRectangle width="59" height="40" as="alternateBounds" />
          </mxGeometry>
        </mxCell>
        <mxCell id="At-pxj6DeVAqqZY1hlbw-151" style="shape=partialRectangle;html=1;whiteSpace=wrap;connectable=0;strokeColor=inherit;overflow=hidden;fillColor=none;top=0;left=0;bottom=0;right=0;pointerEvents=1;fontSize=18;rounded=1;strokeWidth=2;align=center;verticalAlign=middle;fontFamily=Helvetica;fontColor=default;" parent="At-pxj6DeVAqqZY1hlbw-148" vertex="1" visible="0">
          <mxGeometry x="115" width="56" height="40" as="geometry">
            <mxRectangle width="56" height="40" as="alternateBounds" />
          </mxGeometry>
        </mxCell>
        <mxCell id="At-pxj6DeVAqqZY1hlbw-165" style="edgeStyle=orthogonalEdgeStyle;rounded=1;orthogonalLoop=1;jettySize=auto;html=1;exitX=0;exitY=0.5;exitDx=0;exitDy=0;strokeColor=default;strokeWidth=2;align=center;verticalAlign=middle;fontFamily=Helvetica;fontSize=16;fontColor=default;labelBackgroundColor=default;startSize=8;endArrow=classic;endSize=8;" parent="1" source="At-pxj6DeVAqqZY1hlbw-152" edge="1">
          <mxGeometry relative="1" as="geometry">
            <mxPoint x="-40" y="-113" as="targetPoint" />
            <Array as="points">
              <mxPoint x="-39" y="421" />
            </Array>
          </mxGeometry>
        </mxCell>
        <mxCell id="At-pxj6DeVAqqZY1hlbw-167" value="&lt;div style=&quot;color: rgb(212, 212, 212); background-color: rgb(38, 36, 42); font-family: Consolas, &amp;quot;Courier New&amp;quot;, monospace; font-size: 17px; line-height: 23px; white-space-collapse: preserve;&quot;&gt;&lt;span style=&quot;color: #e5c07b;&quot;&gt;acoral_pool_t&lt;/span&gt;&lt;/div&gt;" style="shape=table;startSize=62;container=1;collapsible=0;childLayout=tableLayout;fontSize=18;rounded=1;strokeWidth=2;align=center;verticalAlign=middle;fontFamily=Helvetica;html=1;" parent="1" vertex="1">
          <mxGeometry x="327" y="59" width="171" height="422" as="geometry" />
        </mxCell>
        <mxCell id="At-pxj6DeVAqqZY1hlbw-168" value="" style="shape=tableRow;horizontal=0;startSize=0;swimlaneHead=0;swimlaneBody=0;strokeColor=inherit;top=0;left=0;bottom=0;right=0;collapsible=0;dropTarget=0;fillColor=none;points=[[0,0.5],[1,0.5]];portConstraint=eastwest;fontSize=18;rounded=1;strokeWidth=2;align=center;verticalAlign=middle;fontFamily=Helvetica;fontColor=default;" parent="At-pxj6DeVAqqZY1hlbw-167" vertex="1">
          <mxGeometry y="62" width="171" height="40" as="geometry" />
        </mxCell>
        <mxCell id="At-pxj6DeVAqqZY1hlbw-169" value="&lt;div style=&quot;color: rgb(212, 212, 212); background-color: rgb(38, 36, 42); font-family: Consolas, &amp;quot;Courier New&amp;quot;, monospace; font-size: 17px; line-height: 23px; white-space: pre;&quot;&gt;&lt;span style=&quot;color: #e06c75;&quot;&gt;base_adr&lt;/span&gt;&lt;/div&gt;" style="shape=partialRectangle;whiteSpace=wrap;connectable=0;strokeColor=inherit;overflow=hidden;fillColor=none;top=0;left=0;bottom=0;right=0;pointerEvents=1;fontSize=18;rounded=1;strokeWidth=2;align=center;verticalAlign=middle;fontFamily=Helvetica;fontColor=default;rowspan=1;colspan=3;html=1;" parent="At-pxj6DeVAqqZY1hlbw-168" vertex="1">
          <mxGeometry width="171" height="40" as="geometry">
            <mxRectangle width="56" height="40" as="alternateBounds" />
          </mxGeometry>
        </mxCell>
        <mxCell id="At-pxj6DeVAqqZY1hlbw-170" value="" style="shape=partialRectangle;html=1;whiteSpace=wrap;connectable=0;strokeColor=inherit;overflow=hidden;fillColor=none;top=0;left=0;bottom=0;right=0;pointerEvents=1;fontSize=18;rounded=1;strokeWidth=2;align=center;verticalAlign=middle;fontFamily=Helvetica;fontColor=default;" parent="At-pxj6DeVAqqZY1hlbw-168" vertex="1" visible="0">
          <mxGeometry x="56" width="59" height="40" as="geometry">
            <mxRectangle width="59" height="40" as="alternateBounds" />
          </mxGeometry>
        </mxCell>
        <mxCell id="At-pxj6DeVAqqZY1hlbw-171" value="" style="shape=partialRectangle;html=1;whiteSpace=wrap;connectable=0;strokeColor=inherit;overflow=hidden;fillColor=none;top=0;left=0;bottom=0;right=0;pointerEvents=1;fontSize=18;rounded=1;strokeWidth=2;align=center;verticalAlign=middle;fontFamily=Helvetica;fontColor=default;" parent="At-pxj6DeVAqqZY1hlbw-168" vertex="1" visible="0">
          <mxGeometry x="115" width="56" height="40" as="geometry">
            <mxRectangle width="56" height="40" as="alternateBounds" />
          </mxGeometry>
        </mxCell>
        <mxCell id="At-pxj6DeVAqqZY1hlbw-172" value="" style="shape=tableRow;horizontal=0;startSize=0;swimlaneHead=0;swimlaneBody=0;strokeColor=inherit;top=0;left=0;bottom=0;right=0;collapsible=0;dropTarget=0;fillColor=none;points=[[0,0.5],[1,0.5]];portConstraint=eastwest;fontSize=18;rounded=1;strokeWidth=2;align=center;verticalAlign=middle;fontFamily=Helvetica;fontColor=default;" parent="At-pxj6DeVAqqZY1hlbw-167" vertex="1">
          <mxGeometry y="102" width="171" height="40" as="geometry" />
        </mxCell>
        <mxCell id="At-pxj6DeVAqqZY1hlbw-173" value="&lt;div style=&quot;color: rgb(212, 212, 212); background-color: rgb(38, 36, 42); font-family: Consolas, &amp;quot;Courier New&amp;quot;, monospace; font-size: 17px; line-height: 23px; white-space: pre;&quot;&gt;&lt;span style=&quot;color: #e06c75;&quot;&gt;res_free&lt;/span&gt;&lt;/div&gt;" style="shape=partialRectangle;whiteSpace=wrap;connectable=0;strokeColor=inherit;overflow=hidden;fillColor=none;top=0;left=0;bottom=0;right=0;pointerEvents=1;fontSize=18;rounded=1;strokeWidth=2;align=center;verticalAlign=middle;fontFamily=Helvetica;fontColor=default;rowspan=1;colspan=3;html=1;" parent="At-pxj6DeVAqqZY1hlbw-172" vertex="1">
          <mxGeometry width="171" height="40" as="geometry">
            <mxRectangle width="56" height="40" as="alternateBounds" />
          </mxGeometry>
        </mxCell>
        <mxCell id="At-pxj6DeVAqqZY1hlbw-174" value="" style="shape=partialRectangle;html=1;whiteSpace=wrap;connectable=0;strokeColor=inherit;overflow=hidden;fillColor=none;top=0;left=0;bottom=0;right=0;pointerEvents=1;fontSize=18;rounded=1;strokeWidth=2;align=center;verticalAlign=middle;fontFamily=Helvetica;fontColor=default;" parent="At-pxj6DeVAqqZY1hlbw-172" vertex="1" visible="0">
          <mxGeometry x="56" width="59" height="40" as="geometry">
            <mxRectangle width="59" height="40" as="alternateBounds" />
          </mxGeometry>
        </mxCell>
        <mxCell id="At-pxj6DeVAqqZY1hlbw-175" value="" style="shape=partialRectangle;html=1;whiteSpace=wrap;connectable=0;strokeColor=inherit;overflow=hidden;fillColor=none;top=0;left=0;bottom=0;right=0;pointerEvents=1;fontSize=18;rounded=1;strokeWidth=2;align=center;verticalAlign=middle;fontFamily=Helvetica;fontColor=default;" parent="At-pxj6DeVAqqZY1hlbw-172" vertex="1" visible="0">
          <mxGeometry x="115" width="56" height="40" as="geometry">
            <mxRectangle width="56" height="40" as="alternateBounds" />
          </mxGeometry>
        </mxCell>
        <mxCell id="At-pxj6DeVAqqZY1hlbw-176" value="" style="shape=tableRow;horizontal=0;startSize=0;swimlaneHead=0;swimlaneBody=0;strokeColor=inherit;top=0;left=0;bottom=0;right=0;collapsible=0;dropTarget=0;fillColor=none;points=[[0,0.5],[1,0.5]];portConstraint=eastwest;fontSize=18;rounded=1;strokeWidth=2;align=center;verticalAlign=middle;fontFamily=Helvetica;fontColor=default;" parent="At-pxj6DeVAqqZY1hlbw-167" vertex="1">
          <mxGeometry y="142" width="171" height="40" as="geometry" />
        </mxCell>
        <mxCell id="At-pxj6DeVAqqZY1hlbw-177" value="&lt;div style=&quot;color: rgb(212, 212, 212); background-color: rgb(38, 36, 42); font-family: Consolas, &amp;quot;Courier New&amp;quot;, monospace; font-size: 17px; line-height: 23px; white-space: pre;&quot;&gt;&lt;span style=&quot;color: #e06c75;&quot;&gt;id = 1&lt;/span&gt;&lt;/div&gt;" style="shape=partialRectangle;html=1;whiteSpace=wrap;connectable=0;strokeColor=inherit;overflow=hidden;fillColor=none;top=0;left=0;bottom=0;right=0;pointerEvents=1;fontSize=18;rounded=1;strokeWidth=2;align=center;verticalAlign=middle;fontFamily=Helvetica;fontColor=default;rowspan=1;colspan=3;" parent="At-pxj6DeVAqqZY1hlbw-176" vertex="1">
          <mxGeometry width="171" height="40" as="geometry">
            <mxRectangle width="56" height="40" as="alternateBounds" />
          </mxGeometry>
        </mxCell>
        <mxCell id="At-pxj6DeVAqqZY1hlbw-178" value="" style="shape=partialRectangle;html=1;whiteSpace=wrap;connectable=0;strokeColor=inherit;overflow=hidden;fillColor=none;top=0;left=0;bottom=0;right=0;pointerEvents=1;fontSize=18;rounded=1;strokeWidth=2;align=center;verticalAlign=middle;fontFamily=Helvetica;fontColor=default;" parent="At-pxj6DeVAqqZY1hlbw-176" vertex="1" visible="0">
          <mxGeometry x="56" width="59" height="40" as="geometry">
            <mxRectangle width="59" height="40" as="alternateBounds" />
          </mxGeometry>
        </mxCell>
        <mxCell id="At-pxj6DeVAqqZY1hlbw-179" value="" style="shape=partialRectangle;html=1;whiteSpace=wrap;connectable=0;strokeColor=inherit;overflow=hidden;fillColor=none;top=0;left=0;bottom=0;right=0;pointerEvents=1;fontSize=18;rounded=1;strokeWidth=2;align=center;verticalAlign=middle;fontFamily=Helvetica;fontColor=default;" parent="At-pxj6DeVAqqZY1hlbw-176" vertex="1" visible="0">
          <mxGeometry x="115" width="56" height="40" as="geometry">
            <mxRectangle width="56" height="40" as="alternateBounds" />
          </mxGeometry>
        </mxCell>
        <mxCell id="At-pxj6DeVAqqZY1hlbw-180" style="shape=tableRow;horizontal=0;startSize=0;swimlaneHead=0;swimlaneBody=0;strokeColor=inherit;top=0;left=0;bottom=0;right=0;collapsible=0;dropTarget=0;fillColor=none;points=[[0,0.5],[1,0.5]];portConstraint=eastwest;fontSize=18;rounded=1;strokeWidth=2;align=center;verticalAlign=middle;fontFamily=Helvetica;fontColor=default;" parent="At-pxj6DeVAqqZY1hlbw-167" vertex="1">
          <mxGeometry y="182" width="171" height="40" as="geometry" />
        </mxCell>
        <mxCell id="At-pxj6DeVAqqZY1hlbw-181" value="&lt;div style=&quot;color: rgb(212, 212, 212); background-color: rgb(38, 36, 42); font-family: Consolas, &amp;quot;Courier New&amp;quot;, monospace; font-size: 17px; line-height: 23px; white-space: pre;&quot;&gt;&lt;span style=&quot;color: #e06c75;&quot;&gt;size&lt;/span&gt;&lt;/div&gt;" style="shape=partialRectangle;whiteSpace=wrap;connectable=0;strokeColor=inherit;overflow=hidden;fillColor=none;top=0;left=0;bottom=0;right=0;pointerEvents=1;fontSize=18;rounded=1;strokeWidth=2;align=center;verticalAlign=middle;fontFamily=Helvetica;fontColor=default;rowspan=1;colspan=3;html=1;" parent="At-pxj6DeVAqqZY1hlbw-180" vertex="1">
          <mxGeometry width="171" height="40" as="geometry">
            <mxRectangle width="56" height="40" as="alternateBounds" />
          </mxGeometry>
        </mxCell>
        <mxCell id="At-pxj6DeVAqqZY1hlbw-182" style="shape=partialRectangle;html=1;whiteSpace=wrap;connectable=0;strokeColor=inherit;overflow=hidden;fillColor=none;top=0;left=0;bottom=0;right=0;pointerEvents=1;fontSize=18;rounded=1;strokeWidth=2;align=center;verticalAlign=middle;fontFamily=Helvetica;fontColor=default;" parent="At-pxj6DeVAqqZY1hlbw-180" vertex="1" visible="0">
          <mxGeometry x="56" width="59" height="40" as="geometry">
            <mxRectangle width="59" height="40" as="alternateBounds" />
          </mxGeometry>
        </mxCell>
        <mxCell id="At-pxj6DeVAqqZY1hlbw-183" style="shape=partialRectangle;html=1;whiteSpace=wrap;connectable=0;strokeColor=inherit;overflow=hidden;fillColor=none;top=0;left=0;bottom=0;right=0;pointerEvents=1;fontSize=18;rounded=1;strokeWidth=2;align=center;verticalAlign=middle;fontFamily=Helvetica;fontColor=default;" parent="At-pxj6DeVAqqZY1hlbw-180" vertex="1" visible="0">
          <mxGeometry x="115" width="56" height="40" as="geometry">
            <mxRectangle width="56" height="40" as="alternateBounds" />
          </mxGeometry>
        </mxCell>
        <mxCell id="At-pxj6DeVAqqZY1hlbw-184" style="shape=tableRow;horizontal=0;startSize=0;swimlaneHead=0;swimlaneBody=0;strokeColor=inherit;top=0;left=0;bottom=0;right=0;collapsible=0;dropTarget=0;fillColor=none;points=[[0,0.5],[1,0.5]];portConstraint=eastwest;fontSize=18;rounded=1;strokeWidth=2;align=center;verticalAlign=middle;fontFamily=Helvetica;fontColor=default;" parent="At-pxj6DeVAqqZY1hlbw-167" vertex="1">
          <mxGeometry y="222" width="171" height="40" as="geometry" />
        </mxCell>
        <mxCell id="At-pxj6DeVAqqZY1hlbw-185" value="&lt;div style=&quot;color: rgb(212, 212, 212); background-color: rgb(38, 36, 42); font-family: Consolas, &amp;quot;Courier New&amp;quot;, monospace; font-size: 17px; line-height: 23px; white-space: pre;&quot;&gt;&lt;span style=&quot;color: #e06c75;&quot;&gt;num&lt;/span&gt;&lt;/div&gt;" style="shape=partialRectangle;whiteSpace=wrap;connectable=0;strokeColor=inherit;overflow=hidden;fillColor=none;top=0;left=0;bottom=0;right=0;pointerEvents=1;fontSize=18;rounded=1;strokeWidth=2;align=center;verticalAlign=middle;fontFamily=Helvetica;fontColor=default;rowspan=1;colspan=3;html=1;" parent="At-pxj6DeVAqqZY1hlbw-184" vertex="1">
          <mxGeometry width="171" height="40" as="geometry">
            <mxRectangle width="56" height="40" as="alternateBounds" />
          </mxGeometry>
        </mxCell>
        <mxCell id="At-pxj6DeVAqqZY1hlbw-186" style="shape=partialRectangle;html=1;whiteSpace=wrap;connectable=0;strokeColor=inherit;overflow=hidden;fillColor=none;top=0;left=0;bottom=0;right=0;pointerEvents=1;fontSize=18;rounded=1;strokeWidth=2;align=center;verticalAlign=middle;fontFamily=Helvetica;fontColor=default;" parent="At-pxj6DeVAqqZY1hlbw-184" vertex="1" visible="0">
          <mxGeometry x="56" width="59" height="40" as="geometry">
            <mxRectangle width="59" height="40" as="alternateBounds" />
          </mxGeometry>
        </mxCell>
        <mxCell id="At-pxj6DeVAqqZY1hlbw-187" style="shape=partialRectangle;html=1;whiteSpace=wrap;connectable=0;strokeColor=inherit;overflow=hidden;fillColor=none;top=0;left=0;bottom=0;right=0;pointerEvents=1;fontSize=18;rounded=1;strokeWidth=2;align=center;verticalAlign=middle;fontFamily=Helvetica;fontColor=default;" parent="At-pxj6DeVAqqZY1hlbw-184" vertex="1" visible="0">
          <mxGeometry x="115" width="56" height="40" as="geometry">
            <mxRectangle width="56" height="40" as="alternateBounds" />
          </mxGeometry>
        </mxCell>
        <mxCell id="At-pxj6DeVAqqZY1hlbw-188" style="shape=tableRow;horizontal=0;startSize=0;swimlaneHead=0;swimlaneBody=0;strokeColor=inherit;top=0;left=0;bottom=0;right=0;collapsible=0;dropTarget=0;fillColor=none;points=[[0,0.5],[1,0.5]];portConstraint=eastwest;fontSize=18;rounded=1;strokeWidth=2;align=center;verticalAlign=middle;fontFamily=Helvetica;fontColor=default;" parent="At-pxj6DeVAqqZY1hlbw-167" vertex="1">
          <mxGeometry y="262" width="171" height="40" as="geometry" />
        </mxCell>
        <mxCell id="At-pxj6DeVAqqZY1hlbw-189" value="&lt;div style=&quot;color: rgb(212, 212, 212); background-color: rgb(38, 36, 42); font-family: Consolas, &amp;quot;Courier New&amp;quot;, monospace; font-size: 17px; line-height: 23px; white-space: pre;&quot;&gt;&lt;span style=&quot;color: #e06c75;&quot;&gt;free_num&lt;/span&gt;&lt;/div&gt;" style="shape=partialRectangle;whiteSpace=wrap;connectable=0;strokeColor=inherit;overflow=hidden;fillColor=none;top=0;left=0;bottom=0;right=0;pointerEvents=1;fontSize=18;rounded=1;strokeWidth=2;align=center;verticalAlign=middle;fontFamily=Helvetica;fontColor=default;html=1;rowspan=1;colspan=3;" parent="At-pxj6DeVAqqZY1hlbw-188" vertex="1">
          <mxGeometry width="171" height="40" as="geometry">
            <mxRectangle width="56" height="40" as="alternateBounds" />
          </mxGeometry>
        </mxCell>
        <mxCell id="At-pxj6DeVAqqZY1hlbw-190" style="shape=partialRectangle;html=1;whiteSpace=wrap;connectable=0;strokeColor=inherit;overflow=hidden;fillColor=none;top=0;left=0;bottom=0;right=0;pointerEvents=1;fontSize=18;rounded=1;strokeWidth=2;align=center;verticalAlign=middle;fontFamily=Helvetica;fontColor=default;" parent="At-pxj6DeVAqqZY1hlbw-188" vertex="1" visible="0">
          <mxGeometry x="56" width="59" height="40" as="geometry">
            <mxRectangle width="59" height="40" as="alternateBounds" />
          </mxGeometry>
        </mxCell>
        <mxCell id="At-pxj6DeVAqqZY1hlbw-191" style="shape=partialRectangle;html=1;whiteSpace=wrap;connectable=0;strokeColor=inherit;overflow=hidden;fillColor=none;top=0;left=0;bottom=0;right=0;pointerEvents=1;fontSize=18;rounded=1;strokeWidth=2;align=center;verticalAlign=middle;fontFamily=Helvetica;fontColor=default;" parent="At-pxj6DeVAqqZY1hlbw-188" vertex="1" visible="0">
          <mxGeometry x="115" width="56" height="40" as="geometry">
            <mxRectangle width="56" height="40" as="alternateBounds" />
          </mxGeometry>
        </mxCell>
        <mxCell id="At-pxj6DeVAqqZY1hlbw-192" style="shape=tableRow;horizontal=0;startSize=0;swimlaneHead=0;swimlaneBody=0;strokeColor=inherit;top=0;left=0;bottom=0;right=0;collapsible=0;dropTarget=0;fillColor=none;points=[[0,0.5],[1,0.5]];portConstraint=eastwest;fontSize=18;rounded=1;strokeWidth=2;align=center;verticalAlign=middle;fontFamily=Helvetica;fontColor=default;" parent="At-pxj6DeVAqqZY1hlbw-167" vertex="1">
          <mxGeometry y="302" width="171" height="40" as="geometry" />
        </mxCell>
        <mxCell id="At-pxj6DeVAqqZY1hlbw-193" value="&lt;div style=&quot;color: rgb(212, 212, 212); background-color: rgb(38, 36, 42); font-family: Consolas, &amp;quot;Courier New&amp;quot;, monospace; font-size: 17px; line-height: 23px; white-space: pre;&quot;&gt;&lt;span style=&quot;color: #e06c75;&quot;&gt;ctrl&lt;/span&gt;&lt;/div&gt;" style="shape=partialRectangle;whiteSpace=wrap;connectable=0;strokeColor=inherit;overflow=hidden;fillColor=none;top=0;left=0;bottom=0;right=0;pointerEvents=1;fontSize=18;rounded=1;strokeWidth=2;align=center;verticalAlign=middle;fontFamily=Helvetica;fontColor=default;html=1;rowspan=1;colspan=3;" parent="At-pxj6DeVAqqZY1hlbw-192" vertex="1">
          <mxGeometry width="171" height="40" as="geometry">
            <mxRectangle width="56" height="40" as="alternateBounds" />
          </mxGeometry>
        </mxCell>
        <mxCell id="At-pxj6DeVAqqZY1hlbw-194" style="shape=partialRectangle;html=1;whiteSpace=wrap;connectable=0;strokeColor=inherit;overflow=hidden;fillColor=none;top=0;left=0;bottom=0;right=0;pointerEvents=1;fontSize=18;rounded=1;strokeWidth=2;align=center;verticalAlign=middle;fontFamily=Helvetica;fontColor=default;" parent="At-pxj6DeVAqqZY1hlbw-192" vertex="1" visible="0">
          <mxGeometry x="56" width="59" height="40" as="geometry">
            <mxRectangle width="59" height="40" as="alternateBounds" />
          </mxGeometry>
        </mxCell>
        <mxCell id="At-pxj6DeVAqqZY1hlbw-195" style="shape=partialRectangle;html=1;whiteSpace=wrap;connectable=0;strokeColor=inherit;overflow=hidden;fillColor=none;top=0;left=0;bottom=0;right=0;pointerEvents=1;fontSize=18;rounded=1;strokeWidth=2;align=center;verticalAlign=middle;fontFamily=Helvetica;fontColor=default;" parent="At-pxj6DeVAqqZY1hlbw-192" vertex="1" visible="0">
          <mxGeometry x="115" width="56" height="40" as="geometry">
            <mxRectangle width="56" height="40" as="alternateBounds" />
          </mxGeometry>
        </mxCell>
        <mxCell id="At-pxj6DeVAqqZY1hlbw-196" style="shape=tableRow;horizontal=0;startSize=0;swimlaneHead=0;swimlaneBody=0;strokeColor=inherit;top=0;left=0;bottom=0;right=0;collapsible=0;dropTarget=0;fillColor=none;points=[[0,0.5],[1,0.5]];portConstraint=eastwest;fontSize=18;rounded=1;strokeWidth=2;align=center;verticalAlign=middle;fontFamily=Helvetica;fontColor=default;" parent="At-pxj6DeVAqqZY1hlbw-167" vertex="1">
          <mxGeometry y="342" width="171" height="40" as="geometry" />
        </mxCell>
        <mxCell id="At-pxj6DeVAqqZY1hlbw-197" value="&lt;div style=&quot;color: rgb(212, 212, 212); background-color: rgb(38, 36, 42); font-family: Consolas, &amp;quot;Courier New&amp;quot;, monospace; font-size: 17px; line-height: 23px; white-space: pre;&quot;&gt;&lt;span style=&quot;color: #e06c75;&quot;&gt;ctrl_list&lt;/span&gt;&lt;/div&gt;" style="shape=partialRectangle;whiteSpace=wrap;connectable=0;strokeColor=inherit;overflow=hidden;fillColor=none;top=0;left=0;bottom=0;right=0;pointerEvents=1;fontSize=18;rounded=1;strokeWidth=2;align=center;verticalAlign=middle;fontFamily=Helvetica;fontColor=default;html=1;rowspan=1;colspan=3;" parent="At-pxj6DeVAqqZY1hlbw-196" vertex="1">
          <mxGeometry width="171" height="40" as="geometry">
            <mxRectangle width="56" height="40" as="alternateBounds" />
          </mxGeometry>
        </mxCell>
        <mxCell id="At-pxj6DeVAqqZY1hlbw-198" style="shape=partialRectangle;html=1;whiteSpace=wrap;connectable=0;strokeColor=inherit;overflow=hidden;fillColor=none;top=0;left=0;bottom=0;right=0;pointerEvents=1;fontSize=18;rounded=1;strokeWidth=2;align=center;verticalAlign=middle;fontFamily=Helvetica;fontColor=default;" parent="At-pxj6DeVAqqZY1hlbw-196" vertex="1" visible="0">
          <mxGeometry x="56" width="59" height="40" as="geometry">
            <mxRectangle width="59" height="40" as="alternateBounds" />
          </mxGeometry>
        </mxCell>
        <mxCell id="At-pxj6DeVAqqZY1hlbw-199" style="shape=partialRectangle;html=1;whiteSpace=wrap;connectable=0;strokeColor=inherit;overflow=hidden;fillColor=none;top=0;left=0;bottom=0;right=0;pointerEvents=1;fontSize=18;rounded=1;strokeWidth=2;align=center;verticalAlign=middle;fontFamily=Helvetica;fontColor=default;" parent="At-pxj6DeVAqqZY1hlbw-196" vertex="1" visible="0">
          <mxGeometry x="115" width="56" height="40" as="geometry">
            <mxRectangle width="56" height="40" as="alternateBounds" />
          </mxGeometry>
        </mxCell>
        <mxCell id="At-pxj6DeVAqqZY1hlbw-200" style="shape=tableRow;horizontal=0;startSize=0;swimlaneHead=0;swimlaneBody=0;strokeColor=inherit;top=0;left=0;bottom=0;right=0;collapsible=0;dropTarget=0;fillColor=none;points=[[0,0.5],[1,0.5]];portConstraint=eastwest;fontSize=18;rounded=1;strokeWidth=2;align=center;verticalAlign=middle;fontFamily=Helvetica;fontColor=default;" parent="At-pxj6DeVAqqZY1hlbw-167" vertex="1">
          <mxGeometry y="382" width="171" height="40" as="geometry" />
        </mxCell>
        <mxCell id="At-pxj6DeVAqqZY1hlbw-201" value="&lt;div style=&quot;color: rgb(212, 212, 212); background-color: rgb(38, 36, 42); font-family: Consolas, &amp;quot;Courier New&amp;quot;, monospace; font-size: 17px; line-height: 23px; white-space: pre;&quot;&gt;&lt;span style=&quot;color: #e06c75;&quot;&gt;free_list&lt;/span&gt;&lt;/div&gt;" style="shape=partialRectangle;whiteSpace=wrap;connectable=0;strokeColor=inherit;overflow=hidden;fillColor=none;top=0;left=0;bottom=0;right=0;pointerEvents=1;fontSize=18;rounded=1;strokeWidth=2;align=center;verticalAlign=middle;fontFamily=Helvetica;fontColor=default;html=1;rowspan=1;colspan=3;" parent="At-pxj6DeVAqqZY1hlbw-200" vertex="1">
          <mxGeometry width="171" height="40" as="geometry">
            <mxRectangle width="56" height="40" as="alternateBounds" />
          </mxGeometry>
        </mxCell>
        <mxCell id="At-pxj6DeVAqqZY1hlbw-202" style="shape=partialRectangle;html=1;whiteSpace=wrap;connectable=0;strokeColor=inherit;overflow=hidden;fillColor=none;top=0;left=0;bottom=0;right=0;pointerEvents=1;fontSize=18;rounded=1;strokeWidth=2;align=center;verticalAlign=middle;fontFamily=Helvetica;fontColor=default;" parent="At-pxj6DeVAqqZY1hlbw-200" vertex="1" visible="0">
          <mxGeometry x="56" width="59" height="40" as="geometry">
            <mxRectangle width="59" height="40" as="alternateBounds" />
          </mxGeometry>
        </mxCell>
        <mxCell id="At-pxj6DeVAqqZY1hlbw-203" style="shape=partialRectangle;html=1;whiteSpace=wrap;connectable=0;strokeColor=inherit;overflow=hidden;fillColor=none;top=0;left=0;bottom=0;right=0;pointerEvents=1;fontSize=18;rounded=1;strokeWidth=2;align=center;verticalAlign=middle;fontFamily=Helvetica;fontColor=default;" parent="At-pxj6DeVAqqZY1hlbw-200" vertex="1" visible="0">
          <mxGeometry x="115" width="56" height="40" as="geometry">
            <mxRectangle width="56" height="40" as="alternateBounds" />
          </mxGeometry>
        </mxCell>
        <mxCell id="At-pxj6DeVAqqZY1hlbw-205" style="edgeStyle=orthogonalEdgeStyle;rounded=1;orthogonalLoop=1;jettySize=auto;html=1;exitX=1;exitY=0.5;exitDx=0;exitDy=0;entryX=0.004;entryY=0.06;entryDx=0;entryDy=0;strokeColor=default;strokeWidth=2;align=center;verticalAlign=middle;fontFamily=Helvetica;fontSize=16;fontColor=default;labelBackgroundColor=default;startSize=8;endArrow=classic;endSize=8;entryPerimeter=0;" parent="1" source="At-pxj6DeVAqqZY1hlbw-120" target="At-pxj6DeVAqqZY1hlbw-167" edge="1">
          <mxGeometry relative="1" as="geometry">
            <Array as="points">
              <mxPoint x="209" y="141" />
              <mxPoint x="209" y="84" />
            </Array>
          </mxGeometry>
        </mxCell>
        <mxCell id="At-pxj6DeVAqqZY1hlbw-207" value="资源池空闲时&lt;div style=&quot;font-size: 12px;&quot;&gt;（将内存还给伙伴系统）&lt;/div&gt;" style="edgeLabel;html=1;align=center;verticalAlign=middle;resizable=0;points=[];fontSize=12;rounded=1;strokeColor=default;strokeWidth=2;fontFamily=Helvetica;fontColor=default;labelBackgroundColor=default;fillColor=default;" parent="At-pxj6DeVAqqZY1hlbw-205" vertex="1" connectable="0">
          <mxGeometry x="0.258" relative="1" as="geometry">
            <mxPoint x="1" y="-22" as="offset" />
          </mxGeometry>
        </mxCell>
        <mxCell id="At-pxj6DeVAqqZY1hlbw-209" style="edgeStyle=orthogonalEdgeStyle;rounded=1;orthogonalLoop=1;jettySize=auto;html=1;exitX=0;exitY=0.5;exitDx=0;exitDy=0;strokeColor=default;strokeWidth=2;align=center;verticalAlign=middle;fontFamily=Helvetica;fontSize=16;fontColor=default;labelBackgroundColor=default;startSize=8;endArrow=classic;endSize=8;" parent="1" source="At-pxj6DeVAqqZY1hlbw-148" edge="1">
          <mxGeometry relative="1" as="geometry">
            <mxPoint x="-88" y="-80" as="targetPoint" />
          </mxGeometry>
        </mxCell>
        <mxCell id="At-pxj6DeVAqqZY1hlbw-210" value="&lt;div style=&quot;color: rgb(212, 212, 212); background-color: rgb(38, 36, 42); font-family: Consolas, &amp;quot;Courier New&amp;quot;, monospace; font-size: 17px; line-height: 23px; white-space-collapse: preserve;&quot;&gt;&lt;div style=&quot;line-height: 23px;&quot;&gt;&lt;span style=&quot;color: #e5c07b;&quot;&gt;acoral_thread_t&lt;/span&gt;&lt;/div&gt;&lt;/div&gt;" style="shape=table;startSize=62;container=1;collapsible=0;childLayout=tableLayout;fontSize=18;rounded=1;strokeWidth=2;align=center;verticalAlign=middle;fontFamily=Helvetica;html=1;" parent="1" vertex="1">
          <mxGeometry x="5" y="558" width="171" height="142" as="geometry" />
        </mxCell>
        <mxCell id="At-pxj6DeVAqqZY1hlbw-211" value="" style="shape=tableRow;horizontal=0;startSize=0;swimlaneHead=0;swimlaneBody=0;strokeColor=inherit;top=0;left=0;bottom=0;right=0;collapsible=0;dropTarget=0;fillColor=none;points=[[0,0.5],[1,0.5]];portConstraint=eastwest;fontSize=18;rounded=1;strokeWidth=2;align=center;verticalAlign=middle;fontFamily=Helvetica;fontColor=default;" parent="At-pxj6DeVAqqZY1hlbw-210" vertex="1">
          <mxGeometry y="62" width="171" height="40" as="geometry" />
        </mxCell>
        <mxCell id="At-pxj6DeVAqqZY1hlbw-212" value="&lt;div style=&quot;color: rgb(212, 212, 212); background-color: rgb(38, 36, 42); font-family: Consolas, &amp;quot;Courier New&amp;quot;, monospace; font-size: 17px; line-height: 23px; white-space: pre;&quot;&gt;&lt;div style=&quot;line-height: 23px;&quot;&gt;&lt;span style=&quot;color: #e06c75;&quot;&gt;res &lt;/span&gt;&lt;/div&gt;&lt;/div&gt;" style="shape=partialRectangle;whiteSpace=wrap;connectable=0;strokeColor=inherit;overflow=hidden;fillColor=none;top=0;left=0;bottom=0;right=0;pointerEvents=1;fontSize=18;rounded=1;strokeWidth=2;align=center;verticalAlign=middle;fontFamily=Helvetica;fontColor=default;rowspan=1;colspan=3;html=1;" parent="At-pxj6DeVAqqZY1hlbw-211" vertex="1">
          <mxGeometry width="171" height="40" as="geometry">
            <mxRectangle width="56" height="40" as="alternateBounds" />
          </mxGeometry>
        </mxCell>
        <mxCell id="At-pxj6DeVAqqZY1hlbw-213" value="" style="shape=partialRectangle;html=1;whiteSpace=wrap;connectable=0;strokeColor=inherit;overflow=hidden;fillColor=none;top=0;left=0;bottom=0;right=0;pointerEvents=1;fontSize=18;rounded=1;strokeWidth=2;align=center;verticalAlign=middle;fontFamily=Helvetica;fontColor=default;" parent="At-pxj6DeVAqqZY1hlbw-211" vertex="1" visible="0">
          <mxGeometry x="56" width="59" height="40" as="geometry">
            <mxRectangle width="59" height="40" as="alternateBounds" />
          </mxGeometry>
        </mxCell>
        <mxCell id="At-pxj6DeVAqqZY1hlbw-214" value="" style="shape=partialRectangle;html=1;whiteSpace=wrap;connectable=0;strokeColor=inherit;overflow=hidden;fillColor=none;top=0;left=0;bottom=0;right=0;pointerEvents=1;fontSize=18;rounded=1;strokeWidth=2;align=center;verticalAlign=middle;fontFamily=Helvetica;fontColor=default;" parent="At-pxj6DeVAqqZY1hlbw-211" vertex="1" visible="0">
          <mxGeometry x="115" width="56" height="40" as="geometry">
            <mxRectangle width="56" height="40" as="alternateBounds" />
          </mxGeometry>
        </mxCell>
        <mxCell id="At-pxj6DeVAqqZY1hlbw-215" value="" style="shape=tableRow;horizontal=0;startSize=0;swimlaneHead=0;swimlaneBody=0;strokeColor=inherit;top=0;left=0;bottom=0;right=0;collapsible=0;dropTarget=0;fillColor=none;points=[[0,0.5],[1,0.5]];portConstraint=eastwest;fontSize=18;rounded=1;strokeWidth=2;align=center;verticalAlign=middle;fontFamily=Helvetica;fontColor=default;" parent="At-pxj6DeVAqqZY1hlbw-210" vertex="1">
          <mxGeometry y="102" width="171" height="40" as="geometry" />
        </mxCell>
        <mxCell id="At-pxj6DeVAqqZY1hlbw-216" value="&lt;div style=&quot;background-color: rgb(38, 36, 42); font-family: Consolas, &amp;quot;Courier New&amp;quot;, monospace; font-size: 17px; line-height: 23px; white-space: pre;&quot;&gt;&lt;font color=&quot;#e06c75&quot;&gt;......&lt;/font&gt;&lt;/div&gt;" style="shape=partialRectangle;whiteSpace=wrap;connectable=0;strokeColor=inherit;overflow=hidden;fillColor=none;top=0;left=0;bottom=0;right=0;pointerEvents=1;fontSize=18;rounded=1;strokeWidth=2;align=center;verticalAlign=middle;fontFamily=Helvetica;fontColor=default;rowspan=1;colspan=3;html=1;" parent="At-pxj6DeVAqqZY1hlbw-215" vertex="1">
          <mxGeometry width="171" height="40" as="geometry">
            <mxRectangle width="56" height="40" as="alternateBounds" />
          </mxGeometry>
        </mxCell>
        <mxCell id="At-pxj6DeVAqqZY1hlbw-217" value="" style="shape=partialRectangle;html=1;whiteSpace=wrap;connectable=0;strokeColor=inherit;overflow=hidden;fillColor=none;top=0;left=0;bottom=0;right=0;pointerEvents=1;fontSize=18;rounded=1;strokeWidth=2;align=center;verticalAlign=middle;fontFamily=Helvetica;fontColor=default;" parent="At-pxj6DeVAqqZY1hlbw-215" vertex="1" visible="0">
          <mxGeometry x="56" width="59" height="40" as="geometry">
            <mxRectangle width="59" height="40" as="alternateBounds" />
          </mxGeometry>
        </mxCell>
        <mxCell id="At-pxj6DeVAqqZY1hlbw-218" value="" style="shape=partialRectangle;html=1;whiteSpace=wrap;connectable=0;strokeColor=inherit;overflow=hidden;fillColor=none;top=0;left=0;bottom=0;right=0;pointerEvents=1;fontSize=18;rounded=1;strokeWidth=2;align=center;verticalAlign=middle;fontFamily=Helvetica;fontColor=default;" parent="At-pxj6DeVAqqZY1hlbw-215" vertex="1" visible="0">
          <mxGeometry x="115" width="56" height="40" as="geometry">
            <mxRectangle width="56" height="40" as="alternateBounds" />
          </mxGeometry>
        </mxCell>
        <mxCell id="At-pxj6DeVAqqZY1hlbw-247" value="&lt;div style=&quot;color: rgb(212, 212, 212); background-color: rgb(38, 36, 42); font-family: Consolas, &amp;quot;Courier New&amp;quot;, monospace; font-size: 17px; line-height: 23px; white-space-collapse: preserve;&quot;&gt;&lt;div style=&quot;line-height: 23px;&quot;&gt;&lt;span style=&quot;color: #e5c07b;&quot;&gt;acoral_thread_t&lt;/span&gt;&lt;/div&gt;&lt;/div&gt;" style="shape=table;startSize=62;container=1;collapsible=0;childLayout=tableLayout;fontSize=18;rounded=1;strokeWidth=2;align=center;verticalAlign=middle;fontFamily=Helvetica;html=1;" parent="1" vertex="1">
          <mxGeometry x="5" y="762" width="171" height="142" as="geometry" />
        </mxCell>
        <mxCell id="At-pxj6DeVAqqZY1hlbw-248" value="" style="shape=tableRow;horizontal=0;startSize=0;swimlaneHead=0;swimlaneBody=0;strokeColor=inherit;top=0;left=0;bottom=0;right=0;collapsible=0;dropTarget=0;fillColor=none;points=[[0,0.5],[1,0.5]];portConstraint=eastwest;fontSize=18;rounded=1;strokeWidth=2;align=center;verticalAlign=middle;fontFamily=Helvetica;fontColor=default;" parent="At-pxj6DeVAqqZY1hlbw-247" vertex="1">
          <mxGeometry y="62" width="171" height="40" as="geometry" />
        </mxCell>
        <mxCell id="At-pxj6DeVAqqZY1hlbw-249" value="&lt;div style=&quot;color: rgb(212, 212, 212); background-color: rgb(38, 36, 42); font-family: Consolas, &amp;quot;Courier New&amp;quot;, monospace; font-size: 17px; line-height: 23px; white-space: pre;&quot;&gt;&lt;div style=&quot;line-height: 23px;&quot;&gt;&lt;span style=&quot;color: #e06c75;&quot;&gt;res&lt;/span&gt;&lt;/div&gt;&lt;/div&gt;" style="shape=partialRectangle;whiteSpace=wrap;connectable=0;strokeColor=inherit;overflow=hidden;fillColor=none;top=0;left=0;bottom=0;right=0;pointerEvents=1;fontSize=18;rounded=1;strokeWidth=2;align=center;verticalAlign=middle;fontFamily=Helvetica;fontColor=default;rowspan=1;colspan=3;html=1;" parent="At-pxj6DeVAqqZY1hlbw-248" vertex="1">
          <mxGeometry width="171" height="40" as="geometry">
            <mxRectangle width="56" height="40" as="alternateBounds" />
          </mxGeometry>
        </mxCell>
        <mxCell id="At-pxj6DeVAqqZY1hlbw-250" value="" style="shape=partialRectangle;html=1;whiteSpace=wrap;connectable=0;strokeColor=inherit;overflow=hidden;fillColor=none;top=0;left=0;bottom=0;right=0;pointerEvents=1;fontSize=18;rounded=1;strokeWidth=2;align=center;verticalAlign=middle;fontFamily=Helvetica;fontColor=default;" parent="At-pxj6DeVAqqZY1hlbw-248" vertex="1" visible="0">
          <mxGeometry x="56" width="59" height="40" as="geometry">
            <mxRectangle width="59" height="40" as="alternateBounds" />
          </mxGeometry>
        </mxCell>
        <mxCell id="At-pxj6DeVAqqZY1hlbw-251" value="" style="shape=partialRectangle;html=1;whiteSpace=wrap;connectable=0;strokeColor=inherit;overflow=hidden;fillColor=none;top=0;left=0;bottom=0;right=0;pointerEvents=1;fontSize=18;rounded=1;strokeWidth=2;align=center;verticalAlign=middle;fontFamily=Helvetica;fontColor=default;" parent="At-pxj6DeVAqqZY1hlbw-248" vertex="1" visible="0">
          <mxGeometry x="115" width="56" height="40" as="geometry">
            <mxRectangle width="56" height="40" as="alternateBounds" />
          </mxGeometry>
        </mxCell>
        <mxCell id="At-pxj6DeVAqqZY1hlbw-252" value="" style="shape=tableRow;horizontal=0;startSize=0;swimlaneHead=0;swimlaneBody=0;strokeColor=inherit;top=0;left=0;bottom=0;right=0;collapsible=0;dropTarget=0;fillColor=none;points=[[0,0.5],[1,0.5]];portConstraint=eastwest;fontSize=18;rounded=1;strokeWidth=2;align=center;verticalAlign=middle;fontFamily=Helvetica;fontColor=default;" parent="At-pxj6DeVAqqZY1hlbw-247" vertex="1">
          <mxGeometry y="102" width="171" height="40" as="geometry" />
        </mxCell>
        <mxCell id="At-pxj6DeVAqqZY1hlbw-253" value="&lt;div style=&quot;background-color: rgb(38, 36, 42); font-family: Consolas, &amp;quot;Courier New&amp;quot;, monospace; font-size: 17px; line-height: 23px; white-space: pre;&quot;&gt;&lt;font color=&quot;#e06c75&quot;&gt;......&lt;/font&gt;&lt;/div&gt;" style="shape=partialRectangle;whiteSpace=wrap;connectable=0;strokeColor=inherit;overflow=hidden;fillColor=none;top=0;left=0;bottom=0;right=0;pointerEvents=1;fontSize=18;rounded=1;strokeWidth=2;align=center;verticalAlign=middle;fontFamily=Helvetica;fontColor=default;rowspan=1;colspan=3;html=1;" parent="At-pxj6DeVAqqZY1hlbw-252" vertex="1">
          <mxGeometry width="171" height="40" as="geometry">
            <mxRectangle width="56" height="40" as="alternateBounds" />
          </mxGeometry>
        </mxCell>
        <mxCell id="At-pxj6DeVAqqZY1hlbw-254" value="" style="shape=partialRectangle;html=1;whiteSpace=wrap;connectable=0;strokeColor=inherit;overflow=hidden;fillColor=none;top=0;left=0;bottom=0;right=0;pointerEvents=1;fontSize=18;rounded=1;strokeWidth=2;align=center;verticalAlign=middle;fontFamily=Helvetica;fontColor=default;" parent="At-pxj6DeVAqqZY1hlbw-252" vertex="1" visible="0">
          <mxGeometry x="56" width="59" height="40" as="geometry">
            <mxRectangle width="59" height="40" as="alternateBounds" />
          </mxGeometry>
        </mxCell>
        <mxCell id="At-pxj6DeVAqqZY1hlbw-255" value="" style="shape=partialRectangle;html=1;whiteSpace=wrap;connectable=0;strokeColor=inherit;overflow=hidden;fillColor=none;top=0;left=0;bottom=0;right=0;pointerEvents=1;fontSize=18;rounded=1;strokeWidth=2;align=center;verticalAlign=middle;fontFamily=Helvetica;fontColor=default;" parent="At-pxj6DeVAqqZY1hlbw-252" vertex="1" visible="0">
          <mxGeometry x="115" width="56" height="40" as="geometry">
            <mxRectangle width="56" height="40" as="alternateBounds" />
          </mxGeometry>
        </mxCell>
        <mxCell id="At-pxj6DeVAqqZY1hlbw-256" value="......" style="text;strokeColor=none;fillColor=none;html=1;align=center;verticalAlign=middle;whiteSpace=wrap;rounded=0;fontSize=22;fontFamily=Helvetica;fontColor=default;labelBackgroundColor=default;" parent="1" vertex="1">
          <mxGeometry x="60.5" y="713" width="60" height="30" as="geometry" />
        </mxCell>
        <mxCell id="At-pxj6DeVAqqZY1hlbw-257" value="" style="shape=curlyBracket;whiteSpace=wrap;html=1;rounded=1;labelPosition=left;verticalLabelPosition=middle;align=right;verticalAlign=middle;strokeColor=default;strokeWidth=2;fontFamily=Helvetica;fontSize=16;fontColor=default;labelBackgroundColor=default;fillColor=default;size=0.5;flipH=1;" parent="1" vertex="1">
          <mxGeometry x="177" y="558" width="42" height="344" as="geometry" />
        </mxCell>
        <mxCell id="At-pxj6DeVAqqZY1hlbw-258" value="&lt;span style=&quot;color: rgb(224, 108, 117); font-family: Consolas, &amp;quot;Courier New&amp;quot;, monospace; font-size: 17px; white-space: pre; background-color: rgb(38, 36, 42);&quot;&gt;num&lt;/span&gt;" style="text;strokeColor=none;fillColor=none;html=1;align=center;verticalAlign=middle;whiteSpace=wrap;rounded=0;fontSize=16;fontFamily=Helvetica;fontColor=default;labelBackgroundColor=default;" parent="1" vertex="1">
          <mxGeometry x="220" y="713" width="43" height="30" as="geometry" />
        </mxCell>
        <mxCell id="At-pxj6DeVAqqZY1hlbw-264" style="edgeStyle=orthogonalEdgeStyle;rounded=1;orthogonalLoop=1;jettySize=auto;html=1;exitX=1;exitY=0.5;exitDx=0;exitDy=0;entryX=0.5;entryY=0;entryDx=0;entryDy=0;strokeColor=default;strokeWidth=2;align=center;verticalAlign=middle;fontFamily=Helvetica;fontSize=16;fontColor=default;labelBackgroundColor=default;startSize=8;endArrow=classic;endSize=8;dashed=1;" parent="1" source="At-pxj6DeVAqqZY1hlbw-136" target="At-pxj6DeVAqqZY1hlbw-258" edge="1">
          <mxGeometry relative="1" as="geometry" />
        </mxCell>
        <mxCell id="At-pxj6DeVAqqZY1hlbw-266" style="edgeStyle=orthogonalEdgeStyle;rounded=1;orthogonalLoop=1;jettySize=auto;html=1;exitX=1;exitY=0.5;exitDx=0;exitDy=0;entryX=0.5;entryY=0;entryDx=0;entryDy=0;strokeColor=default;strokeWidth=2;align=center;verticalAlign=middle;fontFamily=Helvetica;fontSize=16;fontColor=default;labelBackgroundColor=default;startSize=8;endArrow=classic;endSize=8;" parent="1" source="At-pxj6DeVAqqZY1hlbw-120" target="At-pxj6DeVAqqZY1hlbw-210" edge="1">
          <mxGeometry relative="1" as="geometry">
            <Array as="points">
              <mxPoint x="210" y="141" />
              <mxPoint x="210" y="530" />
              <mxPoint x="91" y="530" />
            </Array>
          </mxGeometry>
        </mxCell>
        <mxCell id="At-pxj6DeVAqqZY1hlbw-267" value="资源池包含资源时&lt;div style=&quot;font-size: 12px;&quot;&gt;（从伙伴系统拿到内存）&lt;/div&gt;" style="edgeLabel;html=1;align=center;verticalAlign=middle;resizable=0;points=[];fontSize=12;rounded=1;strokeColor=default;strokeWidth=2;fontFamily=Helvetica;fontColor=default;labelBackgroundColor=default;fillColor=default;" parent="At-pxj6DeVAqqZY1hlbw-266" vertex="1" connectable="0">
          <mxGeometry x="0.5784" y="1" relative="1" as="geometry">
            <mxPoint x="-47" y="-23" as="offset" />
          </mxGeometry>
        </mxCell>
        <mxCell id="At-pxj6DeVAqqZY1hlbw-268" value="&lt;div style=&quot;color: rgb(212, 212, 212); background-color: rgb(38, 36, 42); font-family: Consolas, &amp;quot;Courier New&amp;quot;, monospace; font-size: 17px; line-height: 23px; white-space-collapse: preserve;&quot;&gt;&lt;span style=&quot;color: #e5c07b;&quot;&gt;acoral_pool_t&lt;/span&gt;&lt;/div&gt;" style="shape=table;startSize=62;container=1;collapsible=0;childLayout=tableLayout;fontSize=18;rounded=1;strokeWidth=2;align=center;verticalAlign=middle;fontFamily=Helvetica;html=1;" parent="1" vertex="1">
          <mxGeometry x="610" y="59" width="204" height="422" as="geometry" />
        </mxCell>
        <mxCell id="At-pxj6DeVAqqZY1hlbw-269" value="" style="shape=tableRow;horizontal=0;startSize=0;swimlaneHead=0;swimlaneBody=0;strokeColor=inherit;top=0;left=0;bottom=0;right=0;collapsible=0;dropTarget=0;fillColor=none;points=[[0,0.5],[1,0.5]];portConstraint=eastwest;fontSize=18;rounded=1;strokeWidth=2;align=center;verticalAlign=middle;fontFamily=Helvetica;fontColor=default;" parent="At-pxj6DeVAqqZY1hlbw-268" vertex="1">
          <mxGeometry y="62" width="204" height="40" as="geometry" />
        </mxCell>
        <mxCell id="At-pxj6DeVAqqZY1hlbw-270" value="&lt;div style=&quot;color: rgb(212, 212, 212); background-color: rgb(38, 36, 42); font-family: Consolas, &amp;quot;Courier New&amp;quot;, monospace; font-size: 17px; line-height: 23px; white-space: pre;&quot;&gt;&lt;span style=&quot;color: #e06c75;&quot;&gt;base_adr&lt;/span&gt;&lt;/div&gt;" style="shape=partialRectangle;whiteSpace=wrap;connectable=0;strokeColor=inherit;overflow=hidden;fillColor=none;top=0;left=0;bottom=0;right=0;pointerEvents=1;fontSize=18;rounded=1;strokeWidth=2;align=center;verticalAlign=middle;fontFamily=Helvetica;fontColor=default;rowspan=1;colspan=3;html=1;" parent="At-pxj6DeVAqqZY1hlbw-269" vertex="1">
          <mxGeometry width="204" height="40" as="geometry">
            <mxRectangle width="67" height="40" as="alternateBounds" />
          </mxGeometry>
        </mxCell>
        <mxCell id="At-pxj6DeVAqqZY1hlbw-271" value="" style="shape=partialRectangle;html=1;whiteSpace=wrap;connectable=0;strokeColor=inherit;overflow=hidden;fillColor=none;top=0;left=0;bottom=0;right=0;pointerEvents=1;fontSize=18;rounded=1;strokeWidth=2;align=center;verticalAlign=middle;fontFamily=Helvetica;fontColor=default;" parent="At-pxj6DeVAqqZY1hlbw-269" vertex="1" visible="0">
          <mxGeometry x="67" width="70" height="40" as="geometry">
            <mxRectangle width="70" height="40" as="alternateBounds" />
          </mxGeometry>
        </mxCell>
        <mxCell id="At-pxj6DeVAqqZY1hlbw-272" value="" style="shape=partialRectangle;html=1;whiteSpace=wrap;connectable=0;strokeColor=inherit;overflow=hidden;fillColor=none;top=0;left=0;bottom=0;right=0;pointerEvents=1;fontSize=18;rounded=1;strokeWidth=2;align=center;verticalAlign=middle;fontFamily=Helvetica;fontColor=default;" parent="At-pxj6DeVAqqZY1hlbw-269" vertex="1" visible="0">
          <mxGeometry x="137" width="67" height="40" as="geometry">
            <mxRectangle width="67" height="40" as="alternateBounds" />
          </mxGeometry>
        </mxCell>
        <mxCell id="At-pxj6DeVAqqZY1hlbw-273" value="" style="shape=tableRow;horizontal=0;startSize=0;swimlaneHead=0;swimlaneBody=0;strokeColor=inherit;top=0;left=0;bottom=0;right=0;collapsible=0;dropTarget=0;fillColor=none;points=[[0,0.5],[1,0.5]];portConstraint=eastwest;fontSize=18;rounded=1;strokeWidth=2;align=center;verticalAlign=middle;fontFamily=Helvetica;fontColor=default;" parent="At-pxj6DeVAqqZY1hlbw-268" vertex="1">
          <mxGeometry y="102" width="204" height="40" as="geometry" />
        </mxCell>
        <mxCell id="At-pxj6DeVAqqZY1hlbw-274" value="&lt;div style=&quot;color: rgb(212, 212, 212); background-color: rgb(38, 36, 42); font-family: Consolas, &amp;quot;Courier New&amp;quot;, monospace; font-size: 17px; line-height: 23px; white-space: pre;&quot;&gt;&lt;span style=&quot;color: #e06c75;&quot;&gt;res_free&lt;/span&gt;&lt;/div&gt;" style="shape=partialRectangle;whiteSpace=wrap;connectable=0;strokeColor=inherit;overflow=hidden;fillColor=none;top=0;left=0;bottom=0;right=0;pointerEvents=1;fontSize=18;rounded=1;strokeWidth=2;align=center;verticalAlign=middle;fontFamily=Helvetica;fontColor=default;rowspan=1;colspan=3;html=1;" parent="At-pxj6DeVAqqZY1hlbw-273" vertex="1">
          <mxGeometry width="204" height="40" as="geometry">
            <mxRectangle width="67" height="40" as="alternateBounds" />
          </mxGeometry>
        </mxCell>
        <mxCell id="At-pxj6DeVAqqZY1hlbw-275" value="" style="shape=partialRectangle;html=1;whiteSpace=wrap;connectable=0;strokeColor=inherit;overflow=hidden;fillColor=none;top=0;left=0;bottom=0;right=0;pointerEvents=1;fontSize=18;rounded=1;strokeWidth=2;align=center;verticalAlign=middle;fontFamily=Helvetica;fontColor=default;" parent="At-pxj6DeVAqqZY1hlbw-273" vertex="1" visible="0">
          <mxGeometry x="67" width="70" height="40" as="geometry">
            <mxRectangle width="70" height="40" as="alternateBounds" />
          </mxGeometry>
        </mxCell>
        <mxCell id="At-pxj6DeVAqqZY1hlbw-276" value="" style="shape=partialRectangle;html=1;whiteSpace=wrap;connectable=0;strokeColor=inherit;overflow=hidden;fillColor=none;top=0;left=0;bottom=0;right=0;pointerEvents=1;fontSize=18;rounded=1;strokeWidth=2;align=center;verticalAlign=middle;fontFamily=Helvetica;fontColor=default;" parent="At-pxj6DeVAqqZY1hlbw-273" vertex="1" visible="0">
          <mxGeometry x="137" width="67" height="40" as="geometry">
            <mxRectangle width="67" height="40" as="alternateBounds" />
          </mxGeometry>
        </mxCell>
        <mxCell id="At-pxj6DeVAqqZY1hlbw-277" value="" style="shape=tableRow;horizontal=0;startSize=0;swimlaneHead=0;swimlaneBody=0;strokeColor=inherit;top=0;left=0;bottom=0;right=0;collapsible=0;dropTarget=0;fillColor=none;points=[[0,0.5],[1,0.5]];portConstraint=eastwest;fontSize=18;rounded=1;strokeWidth=2;align=center;verticalAlign=middle;fontFamily=Helvetica;fontColor=default;" parent="At-pxj6DeVAqqZY1hlbw-268" vertex="1">
          <mxGeometry y="142" width="204" height="40" as="geometry" />
        </mxCell>
        <mxCell id="At-pxj6DeVAqqZY1hlbw-278" value="&lt;div style=&quot;color: rgb(212, 212, 212); background-color: rgb(38, 36, 42); font-family: Consolas, &amp;quot;Courier New&amp;quot;, monospace; font-size: 17px; line-height: 23px; white-space: pre;&quot;&gt;&lt;span style=&quot;color: #e06c75;&quot;&gt;id = &lt;/span&gt;&lt;span style=&quot;color: rgb(97, 175, 239);&quot;&gt;ACORAL_MAX_POOLS&lt;/span&gt;&lt;/div&gt;" style="shape=partialRectangle;html=1;whiteSpace=wrap;connectable=0;strokeColor=inherit;overflow=hidden;fillColor=none;top=0;left=0;bottom=0;right=0;pointerEvents=1;fontSize=18;rounded=1;strokeWidth=2;align=center;verticalAlign=middle;fontFamily=Helvetica;fontColor=default;rowspan=1;colspan=3;" parent="At-pxj6DeVAqqZY1hlbw-277" vertex="1">
          <mxGeometry width="204" height="40" as="geometry">
            <mxRectangle width="67" height="40" as="alternateBounds" />
          </mxGeometry>
        </mxCell>
        <mxCell id="At-pxj6DeVAqqZY1hlbw-279" value="" style="shape=partialRectangle;html=1;whiteSpace=wrap;connectable=0;strokeColor=inherit;overflow=hidden;fillColor=none;top=0;left=0;bottom=0;right=0;pointerEvents=1;fontSize=18;rounded=1;strokeWidth=2;align=center;verticalAlign=middle;fontFamily=Helvetica;fontColor=default;" parent="At-pxj6DeVAqqZY1hlbw-277" vertex="1" visible="0">
          <mxGeometry x="67" width="70" height="40" as="geometry">
            <mxRectangle width="70" height="40" as="alternateBounds" />
          </mxGeometry>
        </mxCell>
        <mxCell id="At-pxj6DeVAqqZY1hlbw-280" value="" style="shape=partialRectangle;html=1;whiteSpace=wrap;connectable=0;strokeColor=inherit;overflow=hidden;fillColor=none;top=0;left=0;bottom=0;right=0;pointerEvents=1;fontSize=18;rounded=1;strokeWidth=2;align=center;verticalAlign=middle;fontFamily=Helvetica;fontColor=default;" parent="At-pxj6DeVAqqZY1hlbw-277" vertex="1" visible="0">
          <mxGeometry x="137" width="67" height="40" as="geometry">
            <mxRectangle width="67" height="40" as="alternateBounds" />
          </mxGeometry>
        </mxCell>
        <mxCell id="At-pxj6DeVAqqZY1hlbw-281" style="shape=tableRow;horizontal=0;startSize=0;swimlaneHead=0;swimlaneBody=0;strokeColor=inherit;top=0;left=0;bottom=0;right=0;collapsible=0;dropTarget=0;fillColor=none;points=[[0,0.5],[1,0.5]];portConstraint=eastwest;fontSize=18;rounded=1;strokeWidth=2;align=center;verticalAlign=middle;fontFamily=Helvetica;fontColor=default;" parent="At-pxj6DeVAqqZY1hlbw-268" vertex="1">
          <mxGeometry y="182" width="204" height="40" as="geometry" />
        </mxCell>
        <mxCell id="At-pxj6DeVAqqZY1hlbw-282" value="&lt;div style=&quot;color: rgb(212, 212, 212); background-color: rgb(38, 36, 42); font-family: Consolas, &amp;quot;Courier New&amp;quot;, monospace; font-size: 17px; line-height: 23px; white-space: pre;&quot;&gt;&lt;span style=&quot;color: #e06c75;&quot;&gt;size&lt;/span&gt;&lt;/div&gt;" style="shape=partialRectangle;whiteSpace=wrap;connectable=0;strokeColor=inherit;overflow=hidden;fillColor=none;top=0;left=0;bottom=0;right=0;pointerEvents=1;fontSize=18;rounded=1;strokeWidth=2;align=center;verticalAlign=middle;fontFamily=Helvetica;fontColor=default;rowspan=1;colspan=3;html=1;" parent="At-pxj6DeVAqqZY1hlbw-281" vertex="1">
          <mxGeometry width="204" height="40" as="geometry">
            <mxRectangle width="67" height="40" as="alternateBounds" />
          </mxGeometry>
        </mxCell>
        <mxCell id="At-pxj6DeVAqqZY1hlbw-283" style="shape=partialRectangle;html=1;whiteSpace=wrap;connectable=0;strokeColor=inherit;overflow=hidden;fillColor=none;top=0;left=0;bottom=0;right=0;pointerEvents=1;fontSize=18;rounded=1;strokeWidth=2;align=center;verticalAlign=middle;fontFamily=Helvetica;fontColor=default;" parent="At-pxj6DeVAqqZY1hlbw-281" vertex="1" visible="0">
          <mxGeometry x="67" width="70" height="40" as="geometry">
            <mxRectangle width="70" height="40" as="alternateBounds" />
          </mxGeometry>
        </mxCell>
        <mxCell id="At-pxj6DeVAqqZY1hlbw-284" style="shape=partialRectangle;html=1;whiteSpace=wrap;connectable=0;strokeColor=inherit;overflow=hidden;fillColor=none;top=0;left=0;bottom=0;right=0;pointerEvents=1;fontSize=18;rounded=1;strokeWidth=2;align=center;verticalAlign=middle;fontFamily=Helvetica;fontColor=default;" parent="At-pxj6DeVAqqZY1hlbw-281" vertex="1" visible="0">
          <mxGeometry x="137" width="67" height="40" as="geometry">
            <mxRectangle width="67" height="40" as="alternateBounds" />
          </mxGeometry>
        </mxCell>
        <mxCell id="At-pxj6DeVAqqZY1hlbw-285" style="shape=tableRow;horizontal=0;startSize=0;swimlaneHead=0;swimlaneBody=0;strokeColor=inherit;top=0;left=0;bottom=0;right=0;collapsible=0;dropTarget=0;fillColor=none;points=[[0,0.5],[1,0.5]];portConstraint=eastwest;fontSize=18;rounded=1;strokeWidth=2;align=center;verticalAlign=middle;fontFamily=Helvetica;fontColor=default;" parent="At-pxj6DeVAqqZY1hlbw-268" vertex="1">
          <mxGeometry y="222" width="204" height="40" as="geometry" />
        </mxCell>
        <mxCell id="At-pxj6DeVAqqZY1hlbw-286" value="&lt;div style=&quot;color: rgb(212, 212, 212); background-color: rgb(38, 36, 42); font-family: Consolas, &amp;quot;Courier New&amp;quot;, monospace; font-size: 17px; line-height: 23px; white-space: pre;&quot;&gt;&lt;span style=&quot;color: #e06c75;&quot;&gt;num&lt;/span&gt;&lt;/div&gt;" style="shape=partialRectangle;whiteSpace=wrap;connectable=0;strokeColor=inherit;overflow=hidden;fillColor=none;top=0;left=0;bottom=0;right=0;pointerEvents=1;fontSize=18;rounded=1;strokeWidth=2;align=center;verticalAlign=middle;fontFamily=Helvetica;fontColor=default;rowspan=1;colspan=3;html=1;" parent="At-pxj6DeVAqqZY1hlbw-285" vertex="1">
          <mxGeometry width="204" height="40" as="geometry">
            <mxRectangle width="67" height="40" as="alternateBounds" />
          </mxGeometry>
        </mxCell>
        <mxCell id="At-pxj6DeVAqqZY1hlbw-287" style="shape=partialRectangle;html=1;whiteSpace=wrap;connectable=0;strokeColor=inherit;overflow=hidden;fillColor=none;top=0;left=0;bottom=0;right=0;pointerEvents=1;fontSize=18;rounded=1;strokeWidth=2;align=center;verticalAlign=middle;fontFamily=Helvetica;fontColor=default;" parent="At-pxj6DeVAqqZY1hlbw-285" vertex="1" visible="0">
          <mxGeometry x="67" width="70" height="40" as="geometry">
            <mxRectangle width="70" height="40" as="alternateBounds" />
          </mxGeometry>
        </mxCell>
        <mxCell id="At-pxj6DeVAqqZY1hlbw-288" style="shape=partialRectangle;html=1;whiteSpace=wrap;connectable=0;strokeColor=inherit;overflow=hidden;fillColor=none;top=0;left=0;bottom=0;right=0;pointerEvents=1;fontSize=18;rounded=1;strokeWidth=2;align=center;verticalAlign=middle;fontFamily=Helvetica;fontColor=default;" parent="At-pxj6DeVAqqZY1hlbw-285" vertex="1" visible="0">
          <mxGeometry x="137" width="67" height="40" as="geometry">
            <mxRectangle width="67" height="40" as="alternateBounds" />
          </mxGeometry>
        </mxCell>
        <mxCell id="At-pxj6DeVAqqZY1hlbw-289" style="shape=tableRow;horizontal=0;startSize=0;swimlaneHead=0;swimlaneBody=0;strokeColor=inherit;top=0;left=0;bottom=0;right=0;collapsible=0;dropTarget=0;fillColor=none;points=[[0,0.5],[1,0.5]];portConstraint=eastwest;fontSize=18;rounded=1;strokeWidth=2;align=center;verticalAlign=middle;fontFamily=Helvetica;fontColor=default;" parent="At-pxj6DeVAqqZY1hlbw-268" vertex="1">
          <mxGeometry y="262" width="204" height="40" as="geometry" />
        </mxCell>
        <mxCell id="At-pxj6DeVAqqZY1hlbw-290" value="&lt;div style=&quot;color: rgb(212, 212, 212); background-color: rgb(38, 36, 42); font-family: Consolas, &amp;quot;Courier New&amp;quot;, monospace; font-size: 17px; line-height: 23px; white-space: pre;&quot;&gt;&lt;span style=&quot;color: #e06c75;&quot;&gt;free_num&lt;/span&gt;&lt;/div&gt;" style="shape=partialRectangle;whiteSpace=wrap;connectable=0;strokeColor=inherit;overflow=hidden;fillColor=none;top=0;left=0;bottom=0;right=0;pointerEvents=1;fontSize=18;rounded=1;strokeWidth=2;align=center;verticalAlign=middle;fontFamily=Helvetica;fontColor=default;html=1;rowspan=1;colspan=3;" parent="At-pxj6DeVAqqZY1hlbw-289" vertex="1">
          <mxGeometry width="204" height="40" as="geometry">
            <mxRectangle width="67" height="40" as="alternateBounds" />
          </mxGeometry>
        </mxCell>
        <mxCell id="At-pxj6DeVAqqZY1hlbw-291" style="shape=partialRectangle;html=1;whiteSpace=wrap;connectable=0;strokeColor=inherit;overflow=hidden;fillColor=none;top=0;left=0;bottom=0;right=0;pointerEvents=1;fontSize=18;rounded=1;strokeWidth=2;align=center;verticalAlign=middle;fontFamily=Helvetica;fontColor=default;" parent="At-pxj6DeVAqqZY1hlbw-289" vertex="1" visible="0">
          <mxGeometry x="67" width="70" height="40" as="geometry">
            <mxRectangle width="70" height="40" as="alternateBounds" />
          </mxGeometry>
        </mxCell>
        <mxCell id="At-pxj6DeVAqqZY1hlbw-292" style="shape=partialRectangle;html=1;whiteSpace=wrap;connectable=0;strokeColor=inherit;overflow=hidden;fillColor=none;top=0;left=0;bottom=0;right=0;pointerEvents=1;fontSize=18;rounded=1;strokeWidth=2;align=center;verticalAlign=middle;fontFamily=Helvetica;fontColor=default;" parent="At-pxj6DeVAqqZY1hlbw-289" vertex="1" visible="0">
          <mxGeometry x="137" width="67" height="40" as="geometry">
            <mxRectangle width="67" height="40" as="alternateBounds" />
          </mxGeometry>
        </mxCell>
        <mxCell id="At-pxj6DeVAqqZY1hlbw-293" style="shape=tableRow;horizontal=0;startSize=0;swimlaneHead=0;swimlaneBody=0;strokeColor=inherit;top=0;left=0;bottom=0;right=0;collapsible=0;dropTarget=0;fillColor=none;points=[[0,0.5],[1,0.5]];portConstraint=eastwest;fontSize=18;rounded=1;strokeWidth=2;align=center;verticalAlign=middle;fontFamily=Helvetica;fontColor=default;" parent="At-pxj6DeVAqqZY1hlbw-268" vertex="1">
          <mxGeometry y="302" width="204" height="40" as="geometry" />
        </mxCell>
        <mxCell id="At-pxj6DeVAqqZY1hlbw-294" value="&lt;div style=&quot;color: rgb(212, 212, 212); background-color: rgb(38, 36, 42); font-family: Consolas, &amp;quot;Courier New&amp;quot;, monospace; font-size: 17px; line-height: 23px; white-space: pre;&quot;&gt;&lt;span style=&quot;color: #e06c75;&quot;&gt;ctrl&lt;/span&gt;&lt;/div&gt;" style="shape=partialRectangle;whiteSpace=wrap;connectable=0;strokeColor=inherit;overflow=hidden;fillColor=none;top=0;left=0;bottom=0;right=0;pointerEvents=1;fontSize=18;rounded=1;strokeWidth=2;align=center;verticalAlign=middle;fontFamily=Helvetica;fontColor=default;html=1;rowspan=1;colspan=3;" parent="At-pxj6DeVAqqZY1hlbw-293" vertex="1">
          <mxGeometry width="204" height="40" as="geometry">
            <mxRectangle width="67" height="40" as="alternateBounds" />
          </mxGeometry>
        </mxCell>
        <mxCell id="At-pxj6DeVAqqZY1hlbw-295" style="shape=partialRectangle;html=1;whiteSpace=wrap;connectable=0;strokeColor=inherit;overflow=hidden;fillColor=none;top=0;left=0;bottom=0;right=0;pointerEvents=1;fontSize=18;rounded=1;strokeWidth=2;align=center;verticalAlign=middle;fontFamily=Helvetica;fontColor=default;" parent="At-pxj6DeVAqqZY1hlbw-293" vertex="1" visible="0">
          <mxGeometry x="67" width="70" height="40" as="geometry">
            <mxRectangle width="70" height="40" as="alternateBounds" />
          </mxGeometry>
        </mxCell>
        <mxCell id="At-pxj6DeVAqqZY1hlbw-296" style="shape=partialRectangle;html=1;whiteSpace=wrap;connectable=0;strokeColor=inherit;overflow=hidden;fillColor=none;top=0;left=0;bottom=0;right=0;pointerEvents=1;fontSize=18;rounded=1;strokeWidth=2;align=center;verticalAlign=middle;fontFamily=Helvetica;fontColor=default;" parent="At-pxj6DeVAqqZY1hlbw-293" vertex="1" visible="0">
          <mxGeometry x="137" width="67" height="40" as="geometry">
            <mxRectangle width="67" height="40" as="alternateBounds" />
          </mxGeometry>
        </mxCell>
        <mxCell id="At-pxj6DeVAqqZY1hlbw-297" style="shape=tableRow;horizontal=0;startSize=0;swimlaneHead=0;swimlaneBody=0;strokeColor=inherit;top=0;left=0;bottom=0;right=0;collapsible=0;dropTarget=0;fillColor=none;points=[[0,0.5],[1,0.5]];portConstraint=eastwest;fontSize=18;rounded=1;strokeWidth=2;align=center;verticalAlign=middle;fontFamily=Helvetica;fontColor=default;" parent="At-pxj6DeVAqqZY1hlbw-268" vertex="1">
          <mxGeometry y="342" width="204" height="40" as="geometry" />
        </mxCell>
        <mxCell id="At-pxj6DeVAqqZY1hlbw-298" value="&lt;div style=&quot;color: rgb(212, 212, 212); background-color: rgb(38, 36, 42); font-family: Consolas, &amp;quot;Courier New&amp;quot;, monospace; font-size: 17px; line-height: 23px; white-space: pre;&quot;&gt;&lt;span style=&quot;color: #e06c75;&quot;&gt;ctrl_list&lt;/span&gt;&lt;/div&gt;" style="shape=partialRectangle;whiteSpace=wrap;connectable=0;strokeColor=inherit;overflow=hidden;fillColor=none;top=0;left=0;bottom=0;right=0;pointerEvents=1;fontSize=18;rounded=1;strokeWidth=2;align=center;verticalAlign=middle;fontFamily=Helvetica;fontColor=default;html=1;rowspan=1;colspan=3;" parent="At-pxj6DeVAqqZY1hlbw-297" vertex="1">
          <mxGeometry width="204" height="40" as="geometry">
            <mxRectangle width="67" height="40" as="alternateBounds" />
          </mxGeometry>
        </mxCell>
        <mxCell id="At-pxj6DeVAqqZY1hlbw-299" style="shape=partialRectangle;html=1;whiteSpace=wrap;connectable=0;strokeColor=inherit;overflow=hidden;fillColor=none;top=0;left=0;bottom=0;right=0;pointerEvents=1;fontSize=18;rounded=1;strokeWidth=2;align=center;verticalAlign=middle;fontFamily=Helvetica;fontColor=default;" parent="At-pxj6DeVAqqZY1hlbw-297" vertex="1" visible="0">
          <mxGeometry x="67" width="70" height="40" as="geometry">
            <mxRectangle width="70" height="40" as="alternateBounds" />
          </mxGeometry>
        </mxCell>
        <mxCell id="At-pxj6DeVAqqZY1hlbw-300" style="shape=partialRectangle;html=1;whiteSpace=wrap;connectable=0;strokeColor=inherit;overflow=hidden;fillColor=none;top=0;left=0;bottom=0;right=0;pointerEvents=1;fontSize=18;rounded=1;strokeWidth=2;align=center;verticalAlign=middle;fontFamily=Helvetica;fontColor=default;" parent="At-pxj6DeVAqqZY1hlbw-297" vertex="1" visible="0">
          <mxGeometry x="137" width="67" height="40" as="geometry">
            <mxRectangle width="67" height="40" as="alternateBounds" />
          </mxGeometry>
        </mxCell>
        <mxCell id="At-pxj6DeVAqqZY1hlbw-301" style="shape=tableRow;horizontal=0;startSize=0;swimlaneHead=0;swimlaneBody=0;strokeColor=inherit;top=0;left=0;bottom=0;right=0;collapsible=0;dropTarget=0;fillColor=none;points=[[0,0.5],[1,0.5]];portConstraint=eastwest;fontSize=18;rounded=1;strokeWidth=2;align=center;verticalAlign=middle;fontFamily=Helvetica;fontColor=default;" parent="At-pxj6DeVAqqZY1hlbw-268" vertex="1">
          <mxGeometry y="382" width="204" height="40" as="geometry" />
        </mxCell>
        <mxCell id="At-pxj6DeVAqqZY1hlbw-302" value="&lt;div style=&quot;color: rgb(212, 212, 212); background-color: rgb(38, 36, 42); font-family: Consolas, &amp;quot;Courier New&amp;quot;, monospace; font-size: 17px; line-height: 23px; white-space: pre;&quot;&gt;&lt;span style=&quot;color: #e06c75;&quot;&gt;free_list&lt;/span&gt;&lt;/div&gt;" style="shape=partialRectangle;whiteSpace=wrap;connectable=0;strokeColor=inherit;overflow=hidden;fillColor=none;top=0;left=0;bottom=0;right=0;pointerEvents=1;fontSize=18;rounded=1;strokeWidth=2;align=center;verticalAlign=middle;fontFamily=Helvetica;fontColor=default;html=1;rowspan=1;colspan=3;" parent="At-pxj6DeVAqqZY1hlbw-301" vertex="1">
          <mxGeometry width="204" height="40" as="geometry">
            <mxRectangle width="67" height="40" as="alternateBounds" />
          </mxGeometry>
        </mxCell>
        <mxCell id="At-pxj6DeVAqqZY1hlbw-303" style="shape=partialRectangle;html=1;whiteSpace=wrap;connectable=0;strokeColor=inherit;overflow=hidden;fillColor=none;top=0;left=0;bottom=0;right=0;pointerEvents=1;fontSize=18;rounded=1;strokeWidth=2;align=center;verticalAlign=middle;fontFamily=Helvetica;fontColor=default;" parent="At-pxj6DeVAqqZY1hlbw-301" vertex="1" visible="0">
          <mxGeometry x="67" width="70" height="40" as="geometry">
            <mxRectangle width="70" height="40" as="alternateBounds" />
          </mxGeometry>
        </mxCell>
        <mxCell id="At-pxj6DeVAqqZY1hlbw-304" style="shape=partialRectangle;html=1;whiteSpace=wrap;connectable=0;strokeColor=inherit;overflow=hidden;fillColor=none;top=0;left=0;bottom=0;right=0;pointerEvents=1;fontSize=18;rounded=1;strokeWidth=2;align=center;verticalAlign=middle;fontFamily=Helvetica;fontColor=default;" parent="At-pxj6DeVAqqZY1hlbw-301" vertex="1" visible="0">
          <mxGeometry x="137" width="67" height="40" as="geometry">
            <mxRectangle width="67" height="40" as="alternateBounds" />
          </mxGeometry>
        </mxCell>
        <mxCell id="At-pxj6DeVAqqZY1hlbw-305" value="......" style="text;strokeColor=none;fillColor=none;html=1;align=center;verticalAlign=middle;whiteSpace=wrap;rounded=0;fontSize=22;fontFamily=Helvetica;fontColor=default;labelBackgroundColor=default;" parent="1" vertex="1">
          <mxGeometry x="525" y="255" width="60" height="30" as="geometry" />
        </mxCell>
        <mxCell id="At-pxj6DeVAqqZY1hlbw-308" value="" style="shape=curlyBracket;whiteSpace=wrap;html=1;rounded=1;labelPosition=left;verticalLabelPosition=middle;align=right;verticalAlign=middle;strokeColor=default;strokeWidth=2;fontFamily=Helvetica;fontSize=16;fontColor=default;labelBackgroundColor=default;fillColor=default;direction=south;" parent="1" vertex="1">
          <mxGeometry x="5" y="22" width="809" height="31" as="geometry" />
        </mxCell>
        <mxCell id="At-pxj6DeVAqqZY1hlbw-309" value="&lt;div style=&quot;background-color: rgb(38, 36, 42); line-height: 23px;&quot;&gt;&lt;div style=&quot;color: rgb(212, 212, 212); font-family: Consolas, &amp;quot;Courier New&amp;quot;, monospace; font-size: 17px; line-height: 23px; white-space: pre;&quot;&gt;&lt;span style=&quot;color: #e06c75;&quot;&gt;acoral_res_pools&lt;/span&gt;[&lt;span style=&quot;color: #61afef;&quot;&gt;ACORAL_MAX_POOLS&lt;/span&gt;]&lt;/div&gt;&lt;/div&gt;" style="text;strokeColor=none;fillColor=none;html=1;align=center;verticalAlign=middle;whiteSpace=wrap;rounded=0;fontSize=16;fontFamily=Helvetica;fontColor=default;labelBackgroundColor=default;" parent="1" vertex="1">
          <mxGeometry x="239.5" y="-10" width="340" height="36" as="geometry" />
        </mxCell>
        <mxCell id="At-pxj6DeVAqqZY1hlbw-311" style="edgeStyle=orthogonalEdgeStyle;rounded=1;orthogonalLoop=1;jettySize=auto;html=1;exitX=1;exitY=0.5;exitDx=0;exitDy=0;entryX=-0.003;entryY=0.059;entryDx=0;entryDy=0;strokeColor=default;strokeWidth=2;align=center;verticalAlign=middle;fontFamily=Helvetica;fontSize=16;fontColor=default;labelBackgroundColor=default;startSize=8;endArrow=classic;endSize=8;entryPerimeter=0;" parent="1" source="At-pxj6DeVAqqZY1hlbw-168" target="At-pxj6DeVAqqZY1hlbw-268" edge="1">
          <mxGeometry relative="1" as="geometry" />
        </mxCell>
        <mxCell id="At-pxj6DeVAqqZY1hlbw-315" style="edgeStyle=orthogonalEdgeStyle;rounded=1;orthogonalLoop=1;jettySize=auto;html=1;exitX=0.25;exitY=0;exitDx=0;exitDy=0;entryX=0;entryY=0.5;entryDx=0;entryDy=0;strokeColor=default;strokeWidth=2;align=center;verticalAlign=middle;fontFamily=Helvetica;fontSize=16;fontColor=default;labelBackgroundColor=default;startSize=8;endArrow=classic;endSize=8;dashed=1;" parent="1" source="At-pxj6DeVAqqZY1hlbw-312" target="At-pxj6DeVAqqZY1hlbw-62" edge="1">
          <mxGeometry relative="1" as="geometry" />
        </mxCell>
        <mxCell id="At-pxj6DeVAqqZY1hlbw-312" value="&lt;div style=&quot;border-color: rgb(0, 0, 0); font-style: normal; font-variant-ligatures: normal; font-variant-caps: normal; font-weight: 400; letter-spacing: normal; orphans: 2; text-align: center; text-indent: 0px; text-transform: none; widows: 2; word-spacing: 0px; -webkit-text-stroke-width: 0px; text-decoration-thickness: initial; text-decoration-style: initial; text-decoration-color: initial; color: rgb(212, 212, 212); background-color: rgb(38, 36, 42); font-family: Consolas, &amp;quot;Courier New&amp;quot;, monospace; font-size: 17px; line-height: 23px; white-space: pre;&quot;&gt;&lt;span style=&quot;border-color: rgb(0, 0, 0); color: rgb(224, 108, 117);&quot;&gt;0 | &lt;/span&gt;&lt;span style=&quot;color: rgb(86, 182, 194);&quot;&gt;ACORAL_RES_THREAD&lt;/span&gt; &lt;span style=&quot;color: rgb(151, 105, 196);&quot;&gt;&amp;lt;&amp;lt;&lt;/span&gt; &lt;span style=&quot;color: rgb(97, 175, 239);&quot;&gt;ACORAL_RES_TYPE_BIT&lt;/span&gt;&lt;/div&gt;" style="text;whiteSpace=wrap;html=1;fontFamily=Helvetica;fontSize=16;fontColor=default;labelBackgroundColor=default;" parent="1" vertex="1">
          <mxGeometry x="-558" y="501" width="456" height="41" as="geometry" />
        </mxCell>
        <mxCell id="At-pxj6DeVAqqZY1hlbw-313" style="edgeStyle=orthogonalEdgeStyle;rounded=1;orthogonalLoop=1;jettySize=auto;html=1;exitX=0;exitY=0.5;exitDx=0;exitDy=0;entryX=0.472;entryY=-0.067;entryDx=0;entryDy=0;strokeColor=default;strokeWidth=2;align=center;verticalAlign=middle;fontFamily=Helvetica;fontSize=16;fontColor=default;labelBackgroundColor=default;startSize=8;endArrow=classic;endSize=8;dashed=1;entryPerimeter=0;" parent="1" source="At-pxj6DeVAqqZY1hlbw-128" target="At-pxj6DeVAqqZY1hlbw-312" edge="1">
          <mxGeometry relative="1" as="geometry" />
        </mxCell>
        <mxCell id="At-pxj6DeVAqqZY1hlbw-316" value="&lt;div style=&quot;background-color: rgb(38, 36, 42); font-family: Consolas, &amp;quot;Courier New&amp;quot;, monospace; font-weight: normal; font-size: 17px; line-height: 23px; white-space: pre;&quot;&gt;&lt;div style=&quot;&quot;&gt;&lt;font color=&quot;#e06c75&quot;&gt;id = 0&lt;/font&gt;&lt;span style=&quot;color: rgb(212, 212, 212);&quot;&gt; &lt;/span&gt;&lt;span style=&quot;color: rgb(151, 105, 196);&quot;&gt;&amp;lt;&amp;lt;&lt;/span&gt;&lt;span style=&quot;color: rgb(212, 212, 212);&quot;&gt; &lt;/span&gt;&lt;span style=&quot;color: rgb(97, 175, 239);&quot;&gt;ACORAL_RES_INDEX_INIT_BIT&lt;/span&gt;&lt;/div&gt;&lt;div style=&quot;&quot;&gt;&lt;div style=&quot;color: rgb(212, 212, 212); line-height: 23px;&quot;&gt;&lt;span style=&quot;color: #e06c75;&quot;&gt;next_id = 0 + 1&lt;/span&gt;&lt;/div&gt;&lt;/div&gt;&lt;/div&gt;" style="text;whiteSpace=wrap;html=1;fontFamily=Helvetica;fontSize=16;fontColor=default;labelBackgroundColor=default;align=center;" parent="1" vertex="1">
          <mxGeometry x="-420" y="608" width="358" height="64" as="geometry" />
        </mxCell>
        <mxCell id="At-pxj6DeVAqqZY1hlbw-317" style="edgeStyle=orthogonalEdgeStyle;rounded=1;orthogonalLoop=1;jettySize=auto;html=1;exitX=0;exitY=0.5;exitDx=0;exitDy=0;entryX=1;entryY=0.5;entryDx=0;entryDy=0;strokeColor=default;strokeWidth=2;align=center;verticalAlign=middle;fontFamily=Helvetica;fontSize=16;fontColor=default;labelBackgroundColor=default;startSize=8;endArrow=classic;endSize=8;" parent="1" source="At-pxj6DeVAqqZY1hlbw-211" target="At-pxj6DeVAqqZY1hlbw-316" edge="1">
          <mxGeometry relative="1" as="geometry" />
        </mxCell>
        <mxCell id="At-pxj6DeVAqqZY1hlbw-319" style="edgeStyle=orthogonalEdgeStyle;rounded=1;orthogonalLoop=1;jettySize=auto;html=1;exitX=0;exitY=0.5;exitDx=0;exitDy=0;entryX=1;entryY=0.5;entryDx=0;entryDy=0;strokeColor=default;strokeWidth=2;align=center;verticalAlign=middle;fontFamily=Helvetica;fontSize=16;fontColor=default;labelBackgroundColor=default;startSize=8;endArrow=classic;endSize=8;" parent="1" source="At-pxj6DeVAqqZY1hlbw-248" target="At-pxj6DeVAqqZY1hlbw-320" edge="1">
          <mxGeometry relative="1" as="geometry">
            <mxPoint x="-62" y="844.5" as="targetPoint" />
          </mxGeometry>
        </mxCell>
        <mxCell id="At-pxj6DeVAqqZY1hlbw-320" value="&lt;div style=&quot;background-color: rgb(38, 36, 42); font-family: Consolas, &amp;quot;Courier New&amp;quot;, monospace; font-weight: normal; font-size: 17px; line-height: 23px; white-space: pre;&quot;&gt;&lt;div style=&quot;&quot;&gt;&lt;font color=&quot;#e06c75&quot;&gt;id = num - 1&lt;/font&gt;&lt;span style=&quot;color: rgb(212, 212, 212);&quot;&gt; &lt;/span&gt;&lt;span style=&quot;color: rgb(151, 105, 196);&quot;&gt;&amp;lt;&amp;lt;&lt;/span&gt;&lt;span style=&quot;color: rgb(212, 212, 212);&quot;&gt; &lt;/span&gt;&lt;span style=&quot;color: rgb(97, 175, 239);&quot;&gt;ACORAL_RES_INDEX_INIT_BIT&lt;/span&gt;&lt;/div&gt;&lt;div style=&quot;&quot;&gt;&lt;div style=&quot;color: rgb(212, 212, 212); line-height: 23px;&quot;&gt;&lt;span style=&quot;color: #e06c75;&quot;&gt;next_id = 0 &lt;/span&gt;&lt;/div&gt;&lt;/div&gt;&lt;/div&gt;" style="text;whiteSpace=wrap;html=1;fontFamily=Helvetica;fontSize=16;fontColor=default;labelBackgroundColor=default;align=center;" parent="1" vertex="1">
          <mxGeometry x="-479.5" y="812" width="412" height="64" as="geometry" />
        </mxCell>
      </root>
    </mxGraphModel>
  </diagram>
</mxfile>
